<svg width="28" height="29" viewBox="0 0 28 29" fill="none" xmlns="http://www.w3.org/2000/svg">
<path d="M11.2673 12.0687C11.2673 10.7479 10.3687 10.7479 10.3687 10.7479H9.89295H6.67188V13.582H10.1396C10.7388 13.5817 11.2673 13.3901 11.2673 12.0687Z" fill="white"/>
<path d="M10.369 15.5394H6.67188V18.9338H10.1983C10.7288 18.9186 11.7079 18.7525 11.7079 17.2839C11.7079 15.5217 10.369 15.5394 10.369 15.5394Z" fill="white"/>
<path d="M19.835 13.5813C17.8732 13.5813 17.5996 15.5392 17.5996 15.5392H21.7717C21.772 15.5392 21.7969 13.5813 19.835 13.5813Z" fill="white"/>
<path d="M14 0.974854C6.26799 0.974854 0 7.24313 0 14.9749C0 22.7066 6.26799 28.9749 14 28.9749C21.732 28.9749 28 22.7066 28 14.9749C28 7.24313 21.732 0.974854 14 0.974854ZM17.0524 9.23822H22.2926V10.8022H17.0524V9.23822ZM14.4039 17.4414C14.4039 21.3179 10.3696 21.1904 10.3696 21.1904H6.67245H6.56389H3.76045V8.49002H6.56389H6.67245H10.3693C12.3779 8.49002 13.9633 9.59885 13.9633 11.8715C13.9633 14.1444 12.0252 14.2885 12.0252 14.2885C14.5801 14.2885 14.4039 17.4414 14.4039 17.4414ZM19.8592 19.4445C21.9703 19.4445 21.8956 18.0782 21.8956 18.0782H24.1307C24.1307 21.7043 19.7848 21.456 19.7848 21.456C14.5695 21.456 14.9049 16.6007 14.9049 16.6007C14.9049 16.6007 14.9009 11.7214 19.7842 11.7214C24.925 11.7214 24.2052 17.234 24.2052 17.234H17.6241C17.6241 19.5941 19.8592 19.4445 19.8592 19.4445Z" fill="white"/>
</svg>
