<svg width="28" height="29" viewBox="0 0 28 29" fill="none" xmlns="http://www.w3.org/2000/svg">
<path fill-rule="evenodd" clip-rule="evenodd" d="M14 28.9749C21.732 28.9749 28 22.7068 28 14.9749C28 7.24287 21.732 0.974854 14 0.974854C6.26801 0.974854 0 7.24287 0 14.9749C0 22.7068 6.26801 28.9749 14 28.9749ZM15.5714 6.9233C17.278 7.20655 18.8523 8.00231 20.0762 9.20032L17.7066 11.5197C16.9743 10.8029 16.0323 10.3268 15.0111 10.1573C13.99 9.98779 12.9403 10.1334 12.0075 10.5738C11.0746 11.0142 10.3048 11.7278 9.80475 12.6155C9.30464 13.5032 9.099 14.5212 9.2163 15.5285C9.3336 16.5357 9.76804 17.4823 10.4594 18.2371C11.1508 18.9919 12.0649 19.5175 13.0751 19.7411C14.0853 19.9648 15.1415 19.8754 16.0975 19.4853C17.0534 19.0952 17.8618 18.4238 18.4105 17.564L20.9997 19.4853C20.0826 20.9222 18.9846 21.861 17.387 22.5129C15.7893 23.1648 14.0241 23.3142 12.3358 22.9405C10.6475 22.5667 9.1198 21.6882 7.9643 20.4267C6.80881 19.1653 6.08274 17.5833 5.8867 15.9C5.69066 14.2166 6.03435 12.5153 6.87015 11.0316C7.70595 9.54799 8.99249 8.35552 10.5515 7.61942C12.1105 6.88332 13.8648 6.64005 15.5714 6.9233ZM14.1765 17.3083C15.4931 17.3083 16.5603 16.2637 16.5603 14.975C16.5603 13.6863 15.4931 12.6417 14.1765 12.6417C12.8599 12.6417 11.7926 13.6863 11.7926 14.975C11.7926 16.2637 12.8599 17.3083 14.1765 17.3083Z" fill="#FDFDFD"/>
</svg>
