<svg width="28" height="29" viewBox="0 0 28 29" fill="none" xmlns="http://www.w3.org/2000/svg">
<path d="M13.4412 12.0819C12.039 9.60185 10.5404 7.51052 10.2384 7.09546C7.82773 8.24582 6.02226 10.4652 5.44336 13.136H5.52901C6.33564 13.136 9.67788 13.0713 13.4412 12.0819Z" fill="#FDFDFD"/>
<path d="M19.7674 8.41776C18.2258 7.06631 16.2075 6.24536 13.9999 6.24536C13.321 6.24536 12.6604 6.32356 12.0254 6.47137C12.3812 6.95202 13.879 9.02073 15.2459 11.5217C18.2003 10.4045 19.5237 8.75118 19.7674 8.41776Z" fill="#FDFDFD"/>
<path d="M16.5314 14.1482C16.591 14.2879 16.6489 14.4274 16.7059 14.5661C17.3833 14.4827 18.0593 14.4504 18.7016 14.4504C20.6926 14.4504 22.3589 14.762 22.7522 14.8414C22.7187 12.8268 21.9997 10.9761 20.8178 9.51147C20.5122 9.90763 19.0335 11.6592 15.9697 12.9213C16.1665 13.3252 16.3553 13.7354 16.5314 14.1482Z" fill="#FDFDFD"/>
<path d="M14.5993 15.0155C14.6955 14.9846 14.7929 14.9562 14.8903 14.9276C14.6818 14.4598 14.4572 13.9915 14.2212 13.53C10.3355 14.6835 6.5642 14.7738 5.47828 14.7738C5.37803 14.7738 5.30155 14.7732 5.24884 14.7721C5.24712 14.8442 5.24512 14.9164 5.24512 14.988C5.2454 17.2086 6.07867 19.2372 7.44874 20.7808C7.81854 20.1698 10.2241 16.4286 14.5993 15.0155Z" fill="#FDFDFD"/>
<path d="M14 0.974854C6.26799 0.974854 0 7.24313 0 14.9749C0 22.7066 6.26799 28.9749 14 28.9749C21.732 28.9749 28 22.7066 28 14.9749C28 7.24313 21.732 0.974854 14 0.974854ZM14 25.3238C8.286 25.3238 3.63757 20.6814 3.63728 14.9749C3.63785 9.2683 8.286 4.62645 14 4.62588C19.714 4.62645 24.3622 9.2683 24.3624 14.9749C24.3622 20.6814 19.714 25.3238 14 25.3238Z" fill="#FDFDFD"/>
<path d="M17.2803 16.0509C18.3691 19.054 18.8408 21.5168 18.9577 22.19C20.8746 20.87 22.2406 18.8068 22.6357 16.4207C22.3034 16.3193 20.872 15.9188 19.0428 15.9188C18.4856 15.9188 17.8913 15.9569 17.2803 16.0509Z" fill="#FDFDFD"/>
<path d="M15.5205 16.4837C10.7249 18.1525 8.90994 21.4208 8.66016 21.9115C10.1394 23.0513 11.9909 23.731 14.0001 23.731C15.1983 23.731 16.3409 23.4892 17.3818 23.0521C17.2415 22.2378 16.7319 19.6111 15.5303 16.4802C15.5268 16.4814 15.5237 16.4825 15.5205 16.4837Z" fill="#FDFDFD"/>
</svg>
