<svg width="29" height="27" viewBox="0 0 29 27" fill="none" xmlns="http://www.w3.org/2000/svg">
<g clip-path="url(#clip0_105_4427)">
<path fill-rule="evenodd" clip-rule="evenodd" d="M6.42584 15.6396C6.00837 15.6759 5.59695 15.6955 5.18698 15.6965C4.572 15.6983 3.95897 15.6173 3.34664 15.5863C3.08684 15.5733 2.40868 15.55 2.3125 15.5297C1.4747 15.3482 1.40005 14.6543 1.39298 14.4525C1.38687 14.3547 1.35568 13.3526 2.47436 13.2269C3.84221 13.0722 5.20495 13.097 6.52569 13.2968C7.67235 13.1705 8.82675 12.8897 9.88429 12.4815C14.0905 10.8568 14.7826 7.17221 15.0692 3.14293C15.1097 2.52297 15.637 2.04785 16.2551 2.06493C16.8779 2.08238 17.3777 2.58647 17.3836 3.20738C17.4202 5.47543 18.9042 9.61352 20.6722 11.1451C21.0423 11.4655 21.9775 11.7097 22.8899 12.0066C24.1562 12.4205 25.4038 12.892 25.9074 13.3484C25.9858 13.4172 26.7767 14.2395 26.8836 14.4745C27.1363 15.0388 26.9303 15.4577 26.7532 15.6908C26.5761 15.9239 26.2436 16.1772 25.721 16.2469C25.1748 16.3199 24.0812 16.1333 23.8438 16.1324C22.9823 16.1293 21.2886 16.1654 19.8166 16.3988C19.024 16.5246 18.2905 16.6678 17.9075 16.9715C16.4896 18.0956 16.5259 20.0781 16.6103 21.7519C16.6181 21.9439 16.6306 22.1364 16.6385 22.328C16.7833 23.0183 16.8738 23.7461 16.9009 24.5099C16.9433 25.6633 15.8776 25.7667 15.8074 25.7713C15.653 25.7803 14.8599 25.7962 14.6144 24.9097C14.5896 24.8131 14.4926 24.1076 14.4539 23.8357C14.4005 23.4569 14.3659 23.0755 14.3361 22.693C13.4372 18.6947 10.2013 16.3022 6.42584 15.6396ZM10.7403 14.6389C13.9038 13.4111 15.5551 11.2945 16.4345 8.69908L16.4345 8.69953C17.1669 10.4231 18.129 12.0147 19.1524 12.8995C19.54 13.2353 20.346 13.5796 21.2561 13.9047C20.3798 13.9708 19.4441 14.08 18.6379 14.2588C17.7179 14.462 16.9431 14.7728 16.4655 15.1508C15.5452 15.8808 14.9879 16.8449 14.6652 17.9037C13.6258 16.5216 12.2791 15.4286 10.7403 14.6389Z" fill="#1C2B32"/>
</g>
<defs>
<clipPath id="clip0_105_4427">
<rect width="24" height="26" fill="white" transform="translate(0.543457 24.8717) rotate(-85.4042)"/>
</clipPath>
</defs>
</svg>
