<svg width="119" height="81" viewBox="0 0 119 81" fill="none" xmlns="http://www.w3.org/2000/svg">
<path d="M43.1829 7.33819C44.8933 7.33819 46.2798 5.95147 46.2798 4.24087C46.2798 2.53027 44.8933 1.14355 43.1829 1.14355C41.4725 1.14355 40.0859 2.53027 40.0859 4.24087C40.0859 5.95147 41.4725 7.33819 43.1829 7.33819Z" fill="white"/>
<path fill-rule="evenodd" clip-rule="evenodd" d="M64.3291 16.8914C65.3754 17.1374 66.4473 17.2575 67.522 17.2491C68.8891 17.2257 70.2358 16.9135 71.4738 16.333C72.4495 18.5925 72.8477 21.0592 72.6324 23.511C72.4172 25.9627 71.5953 28.3223 70.2409 30.3771C68.8864 32.432 67.042 34.1174 64.8739 35.2816C62.7058 36.4458 60.282 37.052 57.8212 37.0458C56.3271 37.0468 54.8416 36.8203 53.4157 36.374V31.1391H45.9831C43.9542 28.4824 42.8821 25.2181 42.9408 21.8756C42.9994 18.5331 44.1854 15.3084 46.3064 12.7246C48.4273 10.1408 51.3588 8.3493 54.6254 7.64073C57.8921 6.93216 61.3023 7.34804 64.3029 8.82094L64.3291 16.8914ZM57.8212 29.6122C59.2895 29.6122 60.7248 29.1768 61.9457 28.3609C63.1666 27.5451 64.1181 26.3855 64.68 25.0288C65.2419 23.672 65.3889 22.1792 65.1024 20.7389C64.816 19.2986 64.1089 17.9756 63.0707 16.9372C62.0324 15.8989 60.7096 15.1917 59.2695 14.9052C57.8294 14.6187 56.3367 14.7658 54.9802 15.3277C53.6237 15.8897 52.4642 16.8414 51.6485 18.0624C50.8327 19.2834 50.3973 20.7189 50.3973 22.1874C50.3973 24.1566 51.1795 26.0451 52.5717 27.4375C53.964 28.83 55.8523 29.6122 57.8212 29.6122Z" fill="white"/>
<path d="M51.47 33.0933H39.1172V38.9738H51.47V33.0933Z" fill="white"/>
<path d="M66.2998 15.1463C66.7822 15.2445 67.2731 15.2941 67.7654 15.2946C69.7537 15.2557 71.6453 14.4287 73.0243 12.9956C74.4033 11.5624 75.1569 9.64031 75.1195 7.65168C75.1391 6.66411 74.9636 5.68238 74.603 4.76281C74.2424 3.84324 73.7038 3.00392 73.0182 2.29301C72.3325 1.58211 71.5132 1.0136 70.6073 0.620109C69.7014 0.226617 68.7267 0.0158843 67.7392 0C67.2552 0.00093204 66.7726 0.0535798 66.2998 0.157047V15.1463Z" fill="white"/>
<path d="M119 70.3833C119 70.8699 118.856 71.3456 118.586 71.7502C118.315 72.1548 117.931 72.4701 117.482 72.6564C117.032 72.8426 116.537 72.8913 116.06 72.7964C115.583 72.7014 115.145 72.4671 114.801 72.123C114.457 71.7789 114.222 71.3405 114.127 70.8633C114.032 70.386 114.081 69.8913 114.267 69.4417C114.454 68.9921 114.769 68.6079 115.173 68.3375C115.578 68.0672 116.054 67.9229 116.54 67.9229C116.864 67.9217 117.184 67.9846 117.483 68.1078C117.782 68.231 118.054 68.4122 118.282 68.6409C118.511 68.8696 118.692 69.1413 118.815 69.4403C118.939 69.7394 119.001 70.0598 119 70.3833Z" fill="#FDFDFD"/>
<path d="M8.56671 55.6991C6.29468 55.6991 4.1157 56.6018 2.50913 58.2085C0.902561 59.8153 0 61.9946 0 64.2669L0 80.9749H3.42843V71.1682C4.91196 72.2725 6.71752 72.8581 8.56671 72.8347C9.6917 72.8347 10.8057 72.6131 11.845 72.1825C12.8844 71.7519 13.8288 71.1208 14.6243 70.3252C15.4198 69.5296 16.0508 68.5851 16.4813 67.5456C16.9118 66.5061 17.1334 65.392 17.1334 64.2669C17.1334 63.1417 16.9118 62.0276 16.4813 60.9881C16.0508 59.9486 15.4198 59.0041 14.6243 58.2085C13.8288 57.4129 12.8844 56.7819 11.845 56.3513C10.8057 55.9207 9.6917 55.6991 8.56671 55.6991ZM12.1696 67.9139C11.7029 68.3961 11.1425 68.778 10.523 69.036C9.90347 69.2941 9.23777 69.4229 8.56671 69.4145C7.88988 69.4272 7.21768 69.3005 6.59187 69.0423C5.96607 68.7841 5.40003 68.4 4.92891 67.9139C3.96895 66.9534 3.42968 65.6511 3.42968 64.2931C3.42968 62.9351 3.96895 61.6327 4.92891 60.6723C5.39835 60.1862 5.96083 59.7997 6.58282 59.5357C7.20481 59.2717 7.87358 59.1356 8.54926 59.1356C9.22495 59.1356 9.89371 59.2717 10.5157 59.5357C11.1377 59.7997 11.7002 60.1862 12.1696 60.6723C12.6578 61.1405 13.0462 61.7026 13.3116 62.3249C13.577 62.9471 13.7138 63.6166 13.7138 64.2931C13.7138 64.9695 13.577 65.639 13.3116 66.2612C13.0462 66.8835 12.6578 67.4456 12.1696 67.9139Z" fill="#FDFDFD"/>
<path d="M28.1258 72.8348C30.1287 72.8372 32.0696 72.1398 33.613 70.863L31.4321 68.2455C30.511 69.0312 29.3362 69.456 28.1258 69.4408C27.0577 69.446 26.0144 69.1187 25.1406 68.5044C24.2668 67.89 23.6058 67.0189 23.2492 66.012H36.7012V64.267C36.7379 63.1183 36.5433 61.9739 36.129 60.9019C35.7148 59.8299 35.0893 58.852 34.2898 58.0265C33.4903 57.2009 32.533 56.5445 31.4749 56.0963C30.4167 55.648 29.2793 55.417 28.1301 55.417C26.981 55.417 25.8435 55.648 24.7854 56.0963C23.7272 56.5445 22.77 57.2009 21.9704 58.0265C21.1709 58.852 20.5455 59.8299 20.1312 60.9019C19.717 61.9739 19.5224 63.1183 19.559 64.267C19.5486 65.3951 19.763 66.5139 20.1898 67.5581C20.6166 68.6024 21.2472 69.551 22.0448 70.3487C22.8424 71.1464 23.791 71.7771 24.8351 72.204C25.8792 72.6308 26.9979 72.8453 28.1258 72.8348ZM28.1258 59.1281C29.1849 59.1425 30.2148 59.478 31.0792 60.0902C31.9437 60.7025 32.6021 61.5626 32.9674 62.5569H23.2492C23.6166 61.5571 24.2804 60.6931 25.1517 60.0804C26.0231 59.4677 27.0606 59.1355 28.1258 59.1281Z" fill="#FDFDFD"/>
<path d="M63.971 72.8347C65.6653 72.8347 67.3216 72.3322 68.7304 71.3907C70.1392 70.4493 71.2372 69.1112 71.8856 67.5456C72.534 65.9801 72.7037 64.2574 72.3731 62.5954C72.0426 60.9334 71.2267 59.4068 70.0286 58.2085C68.8305 57.0103 67.3041 56.1943 65.6423 55.8637C63.9805 55.5331 62.258 55.7028 60.6927 56.3513C59.1273 56.9998 57.7894 58.0979 56.8481 59.5069C55.9067 60.9158 55.4043 62.5723 55.4043 64.2669C55.4043 66.5392 56.3069 68.7184 57.9134 70.3252C59.52 71.932 61.699 72.8347 63.971 72.8347ZM60.3332 60.6199C61.1716 59.7817 62.2749 59.2604 63.4547 59.1449C64.6346 59.0294 65.818 59.3269 66.803 59.9866C67.788 60.6464 68.5136 61.6275 68.8561 62.7626C69.1985 63.8977 69.1366 65.1165 68.6808 66.211C68.225 67.3055 67.4037 68.208 66.3568 68.7644C65.31 69.3208 64.1026 69.4968 62.9405 69.2623C61.7784 69.0277 60.7337 68.3972 59.9846 67.4782C59.2355 66.5593 58.8284 65.4089 58.8327 64.2233C58.8323 63.5597 58.9648 62.9029 59.2226 62.2914C59.4803 61.68 59.8579 61.1265 60.3332 60.6635V60.6199Z" fill="#FDFDFD"/>
<path d="M88.406 57.4094C86.862 56.2476 84.971 55.6413 83.0394 55.6888C81.1079 55.7364 79.2489 56.4349 77.7639 57.6711C76.279 58.9074 75.2549 60.6091 74.8579 62.5002C74.4608 64.3914 74.7139 66.3612 75.5762 68.0905C76.4386 69.8198 77.8595 71.2071 79.6089 72.0277C81.3582 72.8482 83.3333 73.0539 85.2141 72.6114C87.0949 72.1688 88.7712 71.104 89.9712 69.5895C91.1712 68.075 91.8247 66.1995 91.8257 64.2671V47.5591H88.406V57.4094ZM86.8619 67.8792C86.0281 68.679 84.9438 69.1663 83.7923 69.259C82.6408 69.3517 81.4925 69.0441 80.5416 68.388C79.5906 67.7319 78.8952 66.7677 78.5729 65.6582C78.2506 64.5486 78.3211 63.3618 78.7724 62.2983C79.2238 61.2347 80.0285 60.3596 81.0504 59.8207C82.0723 59.2818 83.2489 59.1122 84.3813 59.3406C85.5138 59.569 86.5328 60.1813 87.266 61.0741C87.9993 61.967 88.402 63.0856 88.406 64.241C88.4172 64.9255 88.2856 65.6049 88.0198 66.2358C87.7539 66.8667 87.3596 67.4353 86.8619 67.9054V67.8792Z" fill="#FDFDFD"/>
<path d="M102.548 72.8352C104.551 72.8376 106.491 72.1401 108.035 70.8634L105.845 68.2459C104.928 69.0317 103.755 69.4566 102.548 69.4412C101.479 69.4456 100.435 69.1182 99.5595 68.504C98.6845 67.8899 98.0216 67.0193 97.6623 66.0124H111.114V64.2674C111.121 62.563 110.622 60.895 109.679 59.4749C108.737 58.0549 107.394 56.9468 105.82 56.2914C104.247 55.636 102.515 55.4627 100.843 55.7935C99.1714 56.1243 97.6355 56.9443 96.4305 58.1496C95.2254 59.3548 94.4055 60.8908 94.0747 62.5628C93.7439 64.2348 93.9172 65.9674 94.5726 67.5408C95.2279 69.1141 96.3358 70.4573 97.7557 71.3999C99.1755 72.3425 100.843 72.8421 102.548 72.8352ZM102.548 59.1285C103.607 59.1429 104.637 59.4784 105.501 60.0906C106.365 60.7028 107.024 61.5629 107.389 62.5573H97.7059C98.0712 61.5629 98.7296 60.7028 99.5941 60.0906C100.459 59.4784 101.488 59.1429 102.548 59.1285Z" fill="#FDFDFD"/>
<path d="M51.0424 68.2282L53.2495 70.8457C52.0007 71.9064 50.4745 72.5876 48.8511 72.8087C47.2277 73.0299 45.5749 72.7818 44.088 72.0937C42.601 71.4056 41.342 70.3063 40.4596 68.9257C39.5773 67.545 39.1084 65.9406 39.1084 64.302C39.1084 62.6634 39.5773 61.0591 40.4596 59.6784C41.342 58.2977 42.601 57.1984 44.088 56.5104C45.5749 55.8223 47.2277 55.5742 48.8511 55.7954C50.4745 56.0165 52.0007 56.6977 53.2495 57.7584L51.0337 60.3759C50.4013 59.8296 49.6459 59.445 48.8322 59.255C48.0186 59.065 47.1709 59.0753 46.3621 59.285C45.5533 59.4947 44.8074 59.8975 44.1885 60.4589C43.5696 61.0203 43.0961 61.7235 42.8087 62.5081C42.5213 63.2928 42.4285 64.1354 42.5383 64.9638C42.6482 65.7922 42.9574 66.5816 43.4393 67.2642C43.9213 67.9469 44.5617 68.5023 45.3055 68.883C46.0493 69.2636 46.8744 69.4581 47.7099 69.4497C48.9312 69.4552 50.1139 69.0217 51.0424 68.2282Z" fill="#FDFDFD"/>
</svg>
