<svg width="1440" height="808" viewBox="0 0 1440 808" fill="none" xmlns="http://www.w3.org/2000/svg">
<path d="M1077.72 449.363C1081.08 446.002 1086.36 445.448 1090.2 448.246C1110.2 462.808 1127.04 481.315 1139.67 502.654C1153.68 526.338 1162.14 552.891 1164.39 580.308C1166.65 607.725 1162.65 635.29 1152.69 660.922C1142.74 686.554 1127.09 709.583 1106.92 728.271C1090.09 745.79 1069.97 759.816 1047.71 769.551C1025.44 779.285 1001.48 784.536 977.175 785.003C952.873 785.471 928.712 781.146 906.072 772.276C883.432 763.405 862.757 750.163 845.227 733.306C838.466 726.571 832.288 719.281 826.756 711.516C824.027 707.684 824.61 702.469 827.937 699.142L1077.72 449.363Z" fill="#EE7373"/>
<mask id="mask0_105_4392" style="mask-type:alpha" maskUnits="userSpaceOnUse" x="-1" y="0" width="1441" height="689">
<rect x="-0.375" width="1440" height="689" fill="#D9D9D9"/>
</mask>
<g mask="url(#mask0_105_4392)">
<mask id="mask1_105_4392" style="mask-type:alpha" maskUnits="userSpaceOnUse" x="1" y="0" width="1441" height="723">
<rect x="1.125" width="1440" height="723" fill="#D9D9D9"/>
</mask>
<g mask="url(#mask1_105_4392)">
<ellipse rx="13.5" ry="13" transform="matrix(4.38475e-08 1 1 -4.35757e-08 752.375 223.5)" fill="#EC7D79"/>
</g>
</g>
<path fill-rule="evenodd" clip-rule="evenodd" d="M322.473 413.8C360.292 391.674 372.931 343.128 350.703 305.369C328.475 267.61 279.797 254.936 241.978 277.062C204.158 299.187 191.52 347.733 213.748 385.493C235.976 423.252 284.654 435.925 322.473 413.8ZM305.73 385.358C283.644 398.279 255.216 390.878 242.234 368.827C229.253 346.776 236.634 318.425 258.721 305.503C280.807 292.582 309.235 299.983 322.216 322.035C335.198 344.086 327.816 372.437 305.73 385.358Z" fill="#4386D1"/>
<path fill-rule="evenodd" clip-rule="evenodd" d="M700.333 480.051C729.231 463.144 738.889 426.049 721.904 397.197C704.919 368.345 667.723 358.66 638.825 375.567C609.927 392.474 600.269 429.568 617.254 458.421C634.239 487.273 671.435 496.957 700.333 480.051ZM687.539 458.318C670.663 468.192 648.94 462.536 639.021 445.686C629.102 428.836 634.742 407.173 651.619 397.3C668.495 387.426 690.218 393.082 700.137 409.932C710.056 426.781 704.416 448.445 687.539 458.318Z" fill="#4386D1"/>
<path d="M108.5 808L215.5 808C221.023 808 225.5 803.523 225.5 798L225.5 572C225.5 566.477 221.023 562 215.5 562L108.5 562C102.977 562 98.5 566.477 98.5 572L98.5 798C98.5 803.523 102.977 808 108.5 808Z" fill="#F6C050"/>
<path d="M1246.56 253.088C1283.93 256.523 1311.43 289.599 1308 326.966V326.966L1240.34 320.746L1246.56 253.088V253.088Z" fill="#48C287"/>
<ellipse rx="13.5" ry="13" transform="matrix(4.38475e-08 1 1 -4.35757e-08 370.5 186.5)" fill="#EC7D79"/>
<ellipse rx="13.5" ry="13" transform="matrix(4.38475e-08 1 1 -4.35757e-08 1342.5 505.5)" fill="#4386D1"/>
<g clip-path="url(#clip0_105_4392)">
<path fill-rule="evenodd" clip-rule="evenodd" d="M1163.43 305.64C1163.01 305.676 1162.6 305.695 1162.19 305.696C1161.57 305.698 1160.96 305.617 1160.35 305.586C1160.09 305.573 1159.41 305.55 1159.31 305.53C1158.47 305.348 1158.4 304.654 1158.39 304.453C1158.39 304.355 1158.36 303.353 1159.47 303.227C1160.84 303.072 1162.2 303.097 1163.53 303.297C1164.67 303.171 1165.83 302.89 1166.88 302.481C1171.09 300.857 1171.78 297.172 1172.07 293.143C1172.11 292.523 1172.64 292.048 1173.26 292.065C1173.88 292.082 1174.38 292.586 1174.38 293.207C1174.42 295.475 1175.9 299.614 1177.67 301.145C1178.04 301.465 1178.98 301.71 1179.89 302.007C1181.16 302.421 1182.4 302.892 1182.91 303.348C1182.99 303.417 1183.78 304.24 1183.88 304.474C1184.14 305.039 1183.93 305.458 1183.75 305.691C1183.58 305.924 1183.24 306.177 1182.72 306.247C1182.17 306.32 1181.08 306.133 1180.84 306.132C1179.98 306.129 1178.29 306.165 1176.82 306.399C1176.02 306.525 1175.29 306.668 1174.91 306.971C1173.49 308.096 1173.53 310.078 1173.61 311.752C1173.62 311.944 1173.63 312.136 1173.64 312.328C1173.78 313.018 1173.87 313.746 1173.9 314.51C1173.94 315.663 1172.88 315.767 1172.81 315.771C1172.65 315.78 1171.86 315.796 1171.61 314.91C1171.59 314.813 1171.49 314.108 1171.45 313.836C1171.4 313.457 1171.37 313.075 1171.34 312.693C1170.44 308.695 1167.2 306.302 1163.43 305.64ZM1167.74 304.639C1170.9 303.411 1172.56 301.295 1173.43 298.699L1173.43 298.7C1174.17 300.423 1175.13 302.015 1176.15 302.9C1176.54 303.235 1177.35 303.58 1178.26 303.905C1177.38 303.971 1176.44 304.08 1175.64 304.259C1174.72 304.462 1173.94 304.773 1173.47 305.151C1172.55 305.881 1171.99 306.845 1171.67 307.904C1170.63 306.522 1169.28 305.429 1167.74 304.639Z" fill="#1C2B32"/>
</g>
<path fill-rule="evenodd" clip-rule="evenodd" d="M193.266 421.25C191.995 427.237 192.27 432.955 192.286 438.987C192.289 440.165 193.243 441.115 194.415 441.113C195.589 441.112 196.538 440.152 196.535 438.974C196.521 433.254 196.216 427.821 197.422 422.134C197.667 420.983 196.933 419.85 195.786 419.609C194.64 419.361 193.51 420.1 193.266 421.25Z" fill="#1C2B32"/>
<path fill-rule="evenodd" clip-rule="evenodd" d="M180.508 410.127C170.896 419.5 161.937 431.449 155.79 443.424C155.254 444.47 155.665 445.755 156.708 446.29C157.751 446.825 159.033 446.416 159.569 445.37C165.514 433.792 174.178 422.235 183.472 413.177C184.313 412.356 184.33 411.007 183.512 410.167C182.694 409.327 181.348 409.305 180.508 410.127Z" fill="#1C2B32"/>
<path fill-rule="evenodd" clip-rule="evenodd" d="M177.689 400.308C168.589 399.098 159.338 401.944 151.22 405.812C150.162 406.321 149.711 407.592 150.214 408.647C150.718 409.71 151.987 410.16 153.047 409.658C160.44 406.132 168.841 403.426 177.129 404.527C178.292 404.682 179.361 403.861 179.515 402.699C179.67 401.538 178.851 400.463 177.689 400.308Z" fill="#1C2B32"/>
<mask id="path-15-inside-1_105_4392" fill="white">
<path d="M100.284 100.168C103.617 105.049 105.955 110.543 107.165 116.334C108.374 122.126 108.432 128.103 107.334 133.924C106.236 139.744 104.004 145.295 100.766 150.258C97.5278 155.222 93.3466 159.501 88.461 162.852C83.5755 166.203 78.0814 168.559 72.2923 169.787C66.5033 171.015 60.5327 171.09 54.7214 170.007C48.9101 168.925 43.372 166.707 38.4233 163.48C33.4745 160.253 29.212 156.08 25.8792 151.199L42.6835 139.674C44.5109 142.35 46.848 144.638 49.5614 146.408C52.2749 148.177 55.3114 149.393 58.4978 149.987C61.6841 150.58 64.9578 150.539 68.132 149.866C71.3062 149.192 74.3186 147.9 76.9974 146.063C79.6761 144.226 81.9687 141.88 83.7442 139.158C85.5198 136.437 86.7434 133.393 87.3454 130.202C87.9474 127.01 87.9159 123.733 87.2527 120.557C86.5895 117.382 85.3076 114.37 83.4802 111.693L100.284 100.168Z"/>
</mask>
<path d="M100.284 100.168C103.617 105.049 105.955 110.543 107.165 116.334C108.374 122.126 108.432 128.103 107.334 133.924C106.236 139.744 104.004 145.295 100.766 150.258C97.5278 155.222 93.3466 159.501 88.461 162.852C83.5755 166.203 78.0814 168.559 72.2923 169.787C66.5033 171.015 60.5327 171.09 54.7214 170.007C48.9101 168.925 43.372 166.707 38.4233 163.48C33.4745 160.253 29.212 156.08 25.8792 151.199L42.6835 139.674C44.5109 142.35 46.848 144.638 49.5614 146.408C52.2749 148.177 55.3114 149.393 58.4978 149.987C61.6841 150.58 64.9578 150.539 68.132 149.866C71.3062 149.192 74.3186 147.9 76.9974 146.063C79.6761 144.226 81.9687 141.88 83.7442 139.158C85.5198 136.437 86.7434 133.393 87.3454 130.202C87.9474 127.01 87.9159 123.733 87.2527 120.557C86.5895 117.382 85.3076 114.37 83.4802 111.693L100.284 100.168Z" stroke="#48C287" stroke-width="290" mask="url(#path-15-inside-1_105_4392)"/>
<defs>
<clipPath id="clip0_105_4392">
<rect width="24" height="26" fill="white" transform="translate(1157.54 314.872) rotate(-85.4042)"/>
</clipPath>
</defs>
</svg>
