<svg width="37" height="17" viewBox="0 0 37 17" fill="none" xmlns="http://www.w3.org/2000/svg">
<path d="M12.6099 4.41926C12.6099 4.96797 12.421 5.36656 12.0431 5.61503C11.6704 5.85832 11.0595 5.97997 10.2106 5.97997C9.19601 5.97997 8.33931 5.7962 7.64048 5.42867C6.98824 5.08185 6.66213 4.68326 6.66213 4.23291C6.66213 3.78773 6.87436 3.38397 7.29883 3.02161C7.74401 2.63855 8.27978 2.44702 8.90613 2.44702C9.00448 2.44702 9.13907 2.44961 9.30989 2.45479C9.48072 2.45996 9.58425 2.46255 9.62048 2.46255H9.74472C9.85342 2.43149 9.90778 2.37973 9.90778 2.30726C9.90778 2.12608 9.71107 1.94232 9.31766 1.75596C8.8466 1.5282 8.25907 1.41432 7.55507 1.41432C6.54566 1.41432 5.70189 1.74043 5.02377 2.39267C4.22142 3.15879 3.82024 4.25879 3.82024 5.69267C3.82024 6.09644 3.85648 6.54162 3.92895 7.02821C4.26024 9.19197 4.55789 10.6414 4.82189 11.3764C5.14283 12.272 5.59836 12.7197 6.18848 12.7197C7.07883 12.7197 7.52401 12.2435 7.52401 11.291C7.52401 10.8666 7.41789 10.204 7.20566 9.30327C7.11766 8.93574 6.92872 8.70538 6.63883 8.61221C6.33342 8.56044 6.02801 8.50868 5.7226 8.45691C5.60871 8.43621 5.53365 8.28091 5.49742 7.99103C5.47671 7.76844 5.4793 7.57432 5.50518 7.40868C5.60354 7.46044 7.74401 7.51997 11.9266 7.58727C11.2174 8.70021 10.8628 10.0099 10.8628 11.5162C10.8628 11.7906 10.8784 11.9899 10.9094 12.1141C10.7386 12.316 10.3322 12.5644 9.69037 12.8595C8.74307 13.2995 7.5913 13.6567 6.23507 13.931C5.60354 14.0605 5.03154 14.1252 4.51906 14.1252C1.71859 14.1252 0.318353 12.3108 0.318353 8.68209C0.318353 3.22091 2.39671 0.490315 6.55342 0.490315C10.0941 0.490315 12.0819 1.52561 12.5167 3.5962C12.5788 3.90161 12.6099 4.17597 12.6099 4.41926ZM24.521 4.93173L24.3502 6.67879C24.1897 6.73056 24.0447 6.75644 23.9153 6.75644C23.5996 6.75644 23.2398 6.64515 22.836 6.42256C23.6953 7.94444 24.125 9.59315 24.125 11.3687C24.125 11.8035 24.0939 12.228 24.0318 12.6421C23.7937 14.1899 23.2967 15.2666 22.541 15.8722C21.661 16.5814 20.1598 16.936 18.0374 16.936C16.205 16.936 14.8099 16.615 13.8523 15.9732C13.2828 15.5849 12.9127 15.1268 12.7419 14.5988C12.6125 14.2002 12.5478 13.8715 12.5478 13.6127C12.5478 12.8259 13.2 12.3056 14.5045 12.052C15.0532 11.9484 15.589 11.8967 16.1118 11.8967C16.8572 11.8967 17.4603 12.0028 17.921 12.215C18.3661 12.4273 18.5887 12.7016 18.5887 13.0381C18.5887 13.8042 18.0763 14.3607 17.0513 14.7075C16.368 14.9405 15.9643 15.0854 15.84 15.1423C15.5967 15.2562 15.4751 15.3779 15.4751 15.5073C15.4751 15.6988 15.884 15.7946 16.7019 15.7946C17.7217 15.7946 18.5939 15.6134 19.3186 15.251C19.9243 14.9508 20.3643 14.2209 20.6386 13.0614C20.8198 12.2849 20.9104 11.4463 20.9104 10.5456C20.9104 10.3334 20.9 10.1729 20.8793 10.0642C20.7085 10.468 20.2892 10.7915 19.6214 11.0348C19.0261 11.247 18.3687 11.3532 17.6492 11.3532C16.5621 11.3532 15.7028 10.9675 15.0713 10.1962C14.6054 9.63197 14.3052 8.92539 14.1706 8.07644C14.0515 7.34656 13.992 6.80562 13.992 6.45362C13.992 5.78068 14.1577 5.28632 14.489 4.97056C14.8668 4.60303 15.5087 4.41926 16.4146 4.41926C16.8391 4.41926 17.3748 4.46844 18.0219 4.56679C19.1297 4.72726 19.9553 5.04562 20.4989 5.52185C20.5506 5.56326 20.5765 5.55032 20.5765 5.48303C20.5765 5.32773 20.4756 4.86703 20.2737 4.10091C21.428 4.79973 22.5306 5.14914 23.5814 5.14914C24.0007 5.14914 24.3139 5.07667 24.521 4.93173ZM21.2909 8.49574C21.2909 8.15927 20.9259 7.81762 20.196 7.47079C19.5438 7.16538 18.876 7.01268 18.1927 7.01268C17.5301 7.01268 16.9814 7.07479 16.5466 7.19903C16.0548 7.33879 15.809 7.5355 15.809 7.78915C15.809 8.09456 16.1713 8.39738 16.896 8.69762C17.6259 8.99268 18.392 9.14021 19.1944 9.14021C19.8259 9.14021 20.3332 9.08068 20.7163 8.96162C21.0993 8.83738 21.2909 8.68209 21.2909 8.49574ZM36.4786 4.93173L36.3078 6.67879C36.1473 6.73056 36.0024 6.75644 35.873 6.75644C35.5572 6.75644 35.1975 6.64515 34.7937 6.42256C35.653 7.94444 36.0826 9.59315 36.0826 11.3687C36.0826 11.8035 36.0516 12.228 35.9895 12.6421C35.7513 14.1899 35.2544 15.2666 34.4986 15.8722C33.6186 16.5814 32.1175 16.936 29.9951 16.936C28.1626 16.936 26.7676 16.615 25.8099 15.9732C25.2405 15.5849 24.8704 15.1268 24.6996 14.5988C24.5701 14.2002 24.5054 13.8715 24.5054 13.6127C24.5054 12.8259 25.1577 12.3056 26.4622 12.052C27.0109 11.9484 27.5466 11.8967 28.0694 11.8967C28.8149 11.8967 29.4179 12.0028 29.8786 12.215C30.3238 12.4273 30.5464 12.7016 30.5464 13.0381C30.5464 13.8042 30.0339 14.3607 29.009 14.7075C28.3257 14.9405 27.9219 15.0854 27.7977 15.1423C27.5544 15.2562 27.4327 15.3779 27.4327 15.5073C27.4327 15.6988 27.8417 15.7946 28.6596 15.7946C29.6793 15.7946 30.5516 15.6134 31.2763 15.251C31.8819 14.9508 32.3219 14.2209 32.5963 13.0614C32.7775 12.2849 32.868 11.4463 32.868 10.5456C32.868 10.3334 32.8577 10.1729 32.837 10.0642C32.6662 10.468 32.2469 10.7915 31.5791 11.0348C30.9838 11.247 30.3264 11.3532 29.6069 11.3532C28.5198 11.3532 27.6605 10.9675 27.029 10.1962C26.5631 9.63197 26.2629 8.92539 26.1283 8.07644C26.0092 7.34656 25.9497 6.80562 25.9497 6.45362C25.9497 5.78068 26.1153 5.28632 26.4466 4.97056C26.8245 4.60303 27.4664 4.41926 28.3723 4.41926C28.7967 4.41926 29.3325 4.46844 29.9796 4.56679C31.0873 4.72726 31.913 5.04562 32.4565 5.52185C32.5083 5.56326 32.5342 5.55032 32.5342 5.48303C32.5342 5.32773 32.4332 4.86703 32.2313 4.10091C33.3857 4.79973 34.4883 5.14914 35.5391 5.14914C35.9584 5.14914 36.2716 5.07667 36.4786 4.93173ZM33.2485 8.49574C33.2485 8.15927 32.8836 7.81762 32.1537 7.47079C31.5015 7.16538 30.8337 7.01268 30.1504 7.01268C29.4878 7.01268 28.9391 7.07479 28.5043 7.19903C28.0125 7.33879 27.7666 7.5355 27.7666 7.78915C27.7666 8.09456 28.129 8.39738 28.8537 8.69762C29.5836 8.99268 30.3497 9.14021 31.152 9.14021C31.7836 9.14021 32.2909 9.08068 32.6739 8.96162C33.057 8.83738 33.2485 8.68209 33.2485 8.49574Z" fill="#1C2B32"/>
</svg>
