<svg width="44" height="36" viewBox="0 0 44 36" fill="none" xmlns="http://www.w3.org/2000/svg">
<mask id="path-1-inside-1_23_1332" fill="white">
<path d="M43.5293 23.8931C42.0165 26.501 40.003 28.7858 37.6037 30.6169C35.2045 32.4481 32.4666 33.7898 29.5462 34.5655C26.6259 35.3411 23.5804 35.5355 20.5835 35.1375C17.5867 34.7396 14.6972 33.757 12.0801 32.246C9.46293 30.735 7.16942 28.7252 5.33045 26.3312C3.49149 23.9372 2.1431 21.206 1.36227 18.2935C0.581435 15.3809 0.383447 12.3442 0.779615 9.35653C1.17578 6.36889 2.15834 3.4889 3.6712 0.880974L12.6731 6.07821C11.8436 7.50814 11.3048 9.08726 11.0876 10.7254C10.8704 12.3635 10.9789 14.0286 11.4071 15.6255C11.8352 17.2225 12.5745 18.72 13.5828 20.0327C14.5912 21.3453 15.8487 22.4473 17.2837 23.2758C18.7187 24.1043 20.303 24.643 21.9462 24.8612C23.5893 25.0794 25.2592 24.9729 26.8605 24.5476C28.4617 24.1223 29.9629 23.3866 31.2784 22.3826C32.5939 21.3785 33.698 20.1258 34.5275 18.6958L43.5293 23.8931Z"/>
</mask>
<path d="M43.5293 23.8931C42.0165 26.501 40.003 28.7858 37.6037 30.6169C35.2045 32.4481 32.4666 33.7898 29.5462 34.5655C26.6259 35.3411 23.5804 35.5355 20.5835 35.1375C17.5867 34.7396 14.6972 33.757 12.0801 32.246C9.46293 30.735 7.16942 28.7252 5.33045 26.3312C3.49149 23.9372 2.1431 21.206 1.36227 18.2935C0.581435 15.3809 0.383447 12.3442 0.779615 9.35653C1.17578 6.36889 2.15834 3.4889 3.6712 0.880974L12.6731 6.07821C11.8436 7.50814 11.3048 9.08726 11.0876 10.7254C10.8704 12.3635 10.9789 14.0286 11.4071 15.6255C11.8352 17.2225 12.5745 18.72 13.5828 20.0327C14.5912 21.3453 15.8487 22.4473 17.2837 23.2758C18.7187 24.1043 20.303 24.643 21.9462 24.8612C23.5893 25.0794 25.2592 24.9729 26.8605 24.5476C28.4617 24.1223 29.9629 23.3866 31.2784 22.3826C32.5939 21.3785 33.698 20.1258 34.5275 18.6958L43.5293 23.8931Z" stroke="#EC7D79" stroke-width="290" mask="url(#path-1-inside-1_23_1332)"/>
</svg>
