<svg width="43" height="42" viewBox="0 0 43 42" fill="none" xmlns="http://www.w3.org/2000/svg">
<path d="M41.8061 11.9618C42.5719 11.2518 42.7535 10.1068 42.1591 9.27919C41.6392 8.5554 41.075 7.86424 40.4693 7.2096C36.3287 2.91972 30.6092 0.489461 24.5679 0.45293C18.5266 0.416401 12.6578 2.77659 8.25131 7.01479C5.98512 9.0355 4.12987 11.4731 2.79201 14.1876C1.45414 16.9022 0.659982 19.8404 0.455097 22.8335C0.250213 25.8267 0.638636 28.816 1.59808 31.63C2.55751 34.4439 4.06909 37.027 6.04608 39.2312C6.64283 39.8724 7.28095 40.4729 7.95631 41.0293C8.73364 41.6698 9.87351 41.5673 10.6305 40.8655L41.8061 11.9618Z" fill="#4386D1"/>
</svg>
