<svg width="1081" height="217" viewBox="0 0 1081 217" fill="none" xmlns="http://www.w3.org/2000/svg">
<g clip-path="url(#clip0_19_777)">
<rect y="0.46582" width="1081" height="216" rx="40" fill="#1C2B32"/>
<g opacity="0.6">
<g filter="url(#filter0_f_19_777)">
<path d="M407.938 26.0832C437.821 -85.4424 611.795 -135.727 796.521 -86.2297C981.246 -36.7327 1106.77 93.8019 1076.89 205.328C1047 316.853 873.029 367.137 688.304 317.641C503.579 268.144 378.055 137.609 407.938 26.0832Z" fill="#4EBA85"/>
</g>
<g filter="url(#filter1_f_19_777)">
<path d="M1325.68 549.109L1590.95 463.19C1600.54 460.086 1604.1 444.566 1598.9 428.525L1540.31 247.606C1535.11 231.565 1523.13 221.078 1513.54 224.183L1248.27 310.102C1238.68 313.206 1235.12 328.726 1240.32 344.767L1298.91 525.685C1304.11 541.726 1316.09 552.213 1325.68 549.109Z" fill="#48C287"/>
</g>
<g filter="url(#filter2_f_19_777)">
<path d="M518.919 -404.407C482.495 -516.868 398.139 -590.277 330.504 -568.372C262.87 -546.466 237.568 -437.541 273.992 -325.08C310.416 -212.619 394.773 -139.21 462.407 -161.115C530.042 -183.021 555.343 -291.946 518.919 -404.407Z" fill="#4386D1"/>
</g>
</g>
<g opacity="0.6">
<g filter="url(#filter3_f_19_777)">
<path d="M-163.241 -174.385C-103.88 -284.647 100.131 -290.107 292.43 -186.581C484.73 -83.0542 592.498 90.2557 533.137 200.518C473.776 310.78 269.765 316.24 77.4658 212.713C-114.834 109.186 -222.602 -64.1234 -163.241 -174.385Z" fill="#4386D1"/>
</g>
<g filter="url(#filter4_f_19_777)">
<path d="M721.534 419.518L986.814 333.599C996.398 330.495 999.956 314.975 994.761 298.934L936.165 118.015C930.97 101.974 918.988 91.4872 909.403 94.5915L644.124 180.51C634.54 183.615 630.982 199.135 636.177 215.176L694.773 396.094C699.968 412.135 711.95 422.622 721.534 419.518Z" fill="#F6C050"/>
</g>
<g filter="url(#filter5_f_19_777)">
<path d="M-85.2213 -533.998C-121.645 -646.459 -206.001 -719.868 -273.636 -697.963C-341.271 -676.057 -366.572 -567.132 -330.148 -454.671C-293.724 -342.21 -209.368 -268.801 -141.733 -290.706C-74.0987 -312.612 -48.7974 -421.537 -85.2213 -533.998Z" fill="#4386D1"/>
</g>
</g>
</g>
<defs>
<filter id="filter0_f_19_777" x="-96.4614" y="-605.28" width="1677.75" height="1441.97" filterUnits="userSpaceOnUse" color-interpolation-filters="sRGB">
<feFlood flood-opacity="0" result="BackgroundImageFix"/>
<feBlend mode="normal" in="SourceGraphic" in2="BackgroundImageFix" result="shape"/>
<feGaussianBlur stdDeviation="250" result="effect1_foregroundBlur_19_777"/>
</filter>
<filter id="filter1_f_19_777" x="637.929" y="-376.362" width="1563.36" height="1526.02" filterUnits="userSpaceOnUse" color-interpolation-filters="sRGB">
<feFlood flood-opacity="0" result="BackgroundImageFix"/>
<feBlend mode="normal" in="SourceGraphic" in2="BackgroundImageFix" result="shape"/>
<feGaussianBlur stdDeviation="300" result="effect1_foregroundBlur_19_777"/>
</filter>
<filter id="filter2_f_19_777" x="-342.664" y="-1172.24" width="1478.24" height="1614.99" filterUnits="userSpaceOnUse" color-interpolation-filters="sRGB">
<feFlood flood-opacity="0" result="BackgroundImageFix"/>
<feBlend mode="normal" in="SourceGraphic" in2="BackgroundImageFix" result="shape"/>
<feGaussianBlur stdDeviation="300" result="effect1_foregroundBlur_19_777"/>
</filter>
<filter id="filter3_f_19_777" x="-779.55" y="-860.791" width="1929" height="1747.71" filterUnits="userSpaceOnUse" color-interpolation-filters="sRGB">
<feFlood flood-opacity="0" result="BackgroundImageFix"/>
<feBlend mode="normal" in="SourceGraphic" in2="BackgroundImageFix" result="shape"/>
<feGaussianBlur stdDeviation="300" result="effect1_foregroundBlur_19_777"/>
</filter>
<filter id="filter4_f_19_777" x="33.7876" y="-505.953" width="1563.36" height="1526.02" filterUnits="userSpaceOnUse" color-interpolation-filters="sRGB">
<feFlood flood-opacity="0" result="BackgroundImageFix"/>
<feBlend mode="normal" in="SourceGraphic" in2="BackgroundImageFix" result="shape"/>
<feGaussianBlur stdDeviation="300" result="effect1_foregroundBlur_19_777"/>
</filter>
<filter id="filter5_f_19_777" x="-946.805" y="-1301.83" width="1478.24" height="1614.99" filterUnits="userSpaceOnUse" color-interpolation-filters="sRGB">
<feFlood flood-opacity="0" result="BackgroundImageFix"/>
<feBlend mode="normal" in="SourceGraphic" in2="BackgroundImageFix" result="shape"/>
<feGaussianBlur stdDeviation="300" result="effect1_foregroundBlur_19_777"/>
</filter>
<clipPath id="clip0_19_777">
<rect y="0.46582" width="1081" height="216" rx="40" fill="white"/>
</clipPath>
</defs>
</svg>
