<svg width="24" height="25" viewBox="0 0 24 25" fill="none" xmlns="http://www.w3.org/2000/svg">
<path fill-rule="evenodd" clip-rule="evenodd" d="M2.96792e-07 2.92599C2.96792e-07 2.39421 0.21125 1.88421 0.587278 1.50818C0.963305 1.13215 1.47331 0.920901 2.00509 0.920901H21.9927C22.2563 0.920471 22.5173 0.972024 22.7609 1.07261C23.0045 1.1732 23.2258 1.32084 23.4123 1.50709C23.5987 1.69333 23.7466 1.91453 23.8475 2.158C23.9483 2.40148 24.0001 2.66246 24 2.92599V22.9136C24.0003 23.1772 23.9486 23.4383 23.8479 23.6819C23.7472 23.9255 23.5994 24.1468 23.4131 24.3332C23.2268 24.5197 23.0055 24.6675 22.762 24.7684C22.5184 24.8692 22.2574 24.921 21.9938 24.9209H2.00509C1.74169 24.9209 1.48086 24.869 1.23752 24.7682C0.994184 24.6673 0.773096 24.5195 0.586892 24.3332C0.400688 24.1469 0.253017 23.9258 0.152316 23.6824C0.0516145 23.439 -0.000143013 23.1781 2.96792e-07 22.9147V2.92599ZM9.49964 10.0714H12.7495V11.7034C13.2185 10.7653 14.4185 9.9209 16.2218 9.9209C19.6789 9.9209 20.4982 11.7896 20.4982 15.2184V21.5696H16.9996V15.9994C16.9996 14.0467 16.5305 12.9449 15.3393 12.9449C13.6865 12.9449 12.9993 14.1329 12.9993 15.9994V21.5696H9.49964V10.0714ZM3.49964 21.4202H6.99927V9.9209H3.49964V21.4191V21.4202ZM7.5 6.17035C7.5066 6.47 7.45328 6.76794 7.34317 7.0467C7.23306 7.32546 7.06838 7.57941 6.8588 7.79366C6.64921 8.00791 6.39894 8.17814 6.12268 8.29436C5.84641 8.41058 5.54972 8.47045 5.25 8.47045C4.95028 8.47045 4.65359 8.41058 4.37732 8.29436C4.10106 8.17814 3.85079 8.00791 3.6412 7.79366C3.43162 7.57941 3.26694 7.32546 3.15683 7.0467C3.04672 6.76794 2.9934 6.47 3 6.17035C3.01295 5.5822 3.25569 5.02249 3.67624 4.6111C4.09678 4.19972 4.6617 3.96936 5.25 3.96936C5.8383 3.96936 6.40322 4.19972 6.82376 4.6111C7.24431 5.02249 7.48705 5.5822 7.5 6.17035Z" fill="#0A66C2"/>
</svg>
