<svg width="28" height="29" viewBox="0 0 28 29" fill="none" xmlns="http://www.w3.org/2000/svg">
<path fill-rule="evenodd" clip-rule="evenodd" d="M28 14.9749C28 22.7068 21.732 28.9749 14 28.9749C6.26801 28.9749 0 22.7068 0 14.9749C0 7.24287 6.26801 0.974854 14 0.974854C21.732 0.974854 28 7.24287 28 14.9749ZM14.0003 12.6414C12.7137 12.6414 11.667 13.6881 11.667 14.9747C11.667 16.2613 12.7137 17.308 14.0003 17.308C15.2869 17.308 16.3337 16.2613 16.3337 14.9747C16.3337 13.6881 15.287 12.6414 14.0003 12.6414ZM16.5625 6.80835C18.0536 6.80835 19.4592 7.39279 20.5206 8.45412C21.5818 9.51533 22.1663 10.9211 22.1663 12.4122V17.5377C22.1663 19.0289 21.5818 20.4347 20.5206 21.4959C19.4594 22.5572 18.0536 23.1417 16.5625 23.1417H11.4369C9.94575 23.1417 8.53999 22.5572 7.47878 21.4959C6.41744 20.4347 5.83301 19.0289 5.83301 17.5377V12.4122C5.83301 10.9211 6.41744 9.51533 7.47878 8.45412C8.53999 7.39279 9.94575 6.80835 11.4369 6.80835H16.5625ZM9.67708 14.975C9.67708 17.3585 11.6162 19.2976 13.9997 19.2976C16.3832 19.2976 18.3223 17.3585 18.3223 14.975C18.3223 12.5915 16.3832 10.6524 13.9997 10.6524C11.6162 10.6524 9.67708 12.5915 9.67708 14.975ZM18.45 11.0032C18.5759 11.0032 18.6993 10.9521 18.7883 10.8631C18.8774 10.774 18.9285 10.6506 18.9285 10.5247C18.9285 10.3987 18.8774 10.2752 18.7883 10.1862C18.6993 10.0971 18.5759 10.0462 18.45 10.0462C18.3239 10.0462 18.2008 10.0971 18.1118 10.1862C18.0224 10.2752 17.9715 10.3987 17.9715 10.5247C17.9715 10.6507 18.0224 10.774 18.1118 10.8631C18.2008 10.9521 18.324 11.0032 18.45 11.0032Z" fill="white"/>
</svg>
