<svg width="28" height="29" viewBox="0 0 28 29" fill="none" xmlns="http://www.w3.org/2000/svg">
<path d="M14 0.974854C6.2692 0.974854 0 7.24405 0 14.9749C0 22.7057 6.2692 28.9749 14 28.9749C21.7308 28.9749 28 22.7057 28 14.9749C28 7.24405 21.7308 0.974854 14 0.974854ZM9.93176 22.1389H6.52213V11.881H9.93176V22.1389ZM8.22705 10.4802H8.20483C7.06067 10.4802 6.32068 9.6926 6.32068 8.70822C6.32068 7.70163 7.08331 6.93579 8.24969 6.93579C9.41608 6.93579 10.1339 7.70163 10.1561 8.70822C10.1561 9.6926 9.41608 10.4802 8.22705 10.4802ZM22.2262 22.1389H18.817V16.6512C18.817 15.272 18.3233 14.3314 17.0896 14.3314C16.1478 14.3314 15.5868 14.9659 15.3403 15.5783C15.2501 15.7975 15.2281 16.1039 15.2281 16.4104V22.1389H11.8187C11.8187 22.1389 11.8633 12.8433 11.8187 11.881H15.2281V13.3334C15.6812 12.6344 16.4919 11.6402 18.3009 11.6402C20.5441 11.6402 22.2262 13.1063 22.2262 16.257V22.1389Z" fill="white"/>
</svg>
