<svg width="112" height="28" viewBox="0 0 112 28" fill="none" xmlns="http://www.w3.org/2000/svg">
<path d="M2.78755 5.1547C3.96301 5.1547 4.91591 4.18059 4.91591 2.97896C4.91591 1.77733 3.96301 0.803223 2.78755 0.803223C1.61208 0.803223 0.65918 1.77733 0.65918 2.97896C0.65918 4.18059 1.61208 5.1547 2.78755 5.1547Z" fill="#4386D1"/>
<path fill-rule="evenodd" clip-rule="evenodd" d="M17.3269 11.8655C18.0439 12.0382 18.7785 12.1226 19.5152 12.1168C20.4548 12.1011 21.3805 11.8817 22.2311 11.4733C23.0112 13.3058 23.2593 15.329 22.9458 17.3017C22.6323 19.2743 21.7705 21.1132 20.463 22.599C19.1555 24.0848 17.4576 25.1549 15.5717 25.6816C13.6858 26.2083 11.6915 26.1694 9.82661 25.5696V21.8923H4.71254C3.31814 20.0261 2.58136 17.733 2.62169 15.3851C2.66201 13.0371 3.47708 10.7719 4.9347 8.95688C6.39232 7.14185 8.407 5.88341 10.652 5.38567C12.897 4.88792 15.2407 5.18007 17.3029 6.21472L17.3269 11.8655ZM12.8543 20.8014C13.8634 20.8014 14.8498 20.4955 15.6889 19.9224C16.5279 19.3493 17.1818 18.5347 17.568 17.5817C17.9542 16.6286 18.0552 15.5799 17.8583 14.5682C17.6615 13.5565 17.1755 12.6271 16.462 11.8977C15.7485 11.1683 14.8394 10.6715 13.8497 10.4703C12.8599 10.269 11.8341 10.3723 10.9018 10.7671C9.96952 11.1619 9.17269 11.8304 8.61206 12.6881C8.05144 13.5458 7.7522 14.5542 7.7522 15.5857C7.7522 16.969 8.28974 18.2956 9.24657 19.2737C10.2034 20.2519 11.5011 20.8014 12.8543 20.8014Z" fill="#4EBA85"/>
<path d="M8.48949 23.2471H0V27.3779H8.48949V23.2471Z" fill="#F6C050"/>
<path d="M18.6577 10.6397C19.4087 10.7962 20.1847 10.7763 20.927 10.5814C21.6694 10.3866 22.3588 10.0219 22.9431 9.51483C23.5274 9.0078 23.9915 8.37171 24.3001 7.65456C24.6088 6.93741 24.7541 6.15795 24.7251 5.375C24.7386 4.6828 24.6186 3.99465 24.3719 3.34987C24.1252 2.70509 23.7566 2.11631 23.2873 1.61717C22.8179 1.11803 22.257 0.718302 21.6365 0.440825C21.016 0.163348 20.3481 0.0135571 19.6709 9.10047e-06C19.3303 -0.000666911 18.9906 0.0363212 18.6577 0.110328V10.6397Z" fill="#EC7D79"/>
<path d="M112 19.9371C112 20.2792 111.901 20.6136 111.715 20.8979C111.529 21.1823 111.264 21.4038 110.955 21.5344C110.646 21.6651 110.305 21.6989 109.977 21.6317C109.649 21.5646 109.348 21.3993 109.112 21.157C108.876 20.9147 108.715 20.6062 108.65 20.2705C108.586 19.9348 108.62 19.5871 108.749 19.2714C108.878 18.9557 109.096 18.6862 109.374 18.497C109.653 18.3079 109.981 18.2075 110.315 18.2088C110.537 18.2087 110.757 18.2535 110.961 18.3404C111.166 18.4274 111.352 18.5548 111.509 18.7153C111.665 18.8759 111.789 19.0665 111.874 19.2761C111.958 19.4858 112.001 19.7104 112 19.9371Z" fill="#1C2B32"/>
<path d="M36.1103 9.62256C34.5483 9.62256 33.0501 10.2565 31.9451 11.385C30.84 12.5135 30.2184 14.0443 30.2168 15.6411V27.3778H32.573V20.489C33.5936 21.2672 34.8372 21.6788 36.1103 21.6596C37.6717 21.6596 39.1692 21.0255 40.2734 19.8968C41.3775 18.7681 41.9978 17.2373 41.9978 15.6411C41.9978 14.0449 41.3775 12.514 40.2734 11.3853C39.1692 10.2567 37.6717 9.62256 36.1103 9.62256ZM38.5804 18.2029C37.9189 18.8744 37.0245 19.2512 36.0923 19.2512C35.1601 19.2512 34.2657 18.8744 33.6042 18.2029C32.9445 17.5283 32.5738 16.6134 32.5738 15.6595C32.5738 14.7055 32.9445 13.7906 33.6042 13.116C33.9287 12.7717 34.317 12.497 34.7466 12.3079C35.1761 12.1188 35.6382 12.0192 36.1058 12.0147C36.5735 12.0103 37.0373 12.1012 37.4702 12.2821C37.9031 12.463 38.2964 12.7302 38.6271 13.0683C38.9577 13.4063 39.2192 13.8084 39.3962 14.2509C39.5731 14.6934 39.662 15.1676 39.6577 15.6456C39.6533 16.1237 39.5558 16.5961 39.3709 17.0351C39.1859 17.4742 38.9172 17.8712 38.5804 18.2029Z" fill="#1C2B32"/>
<path d="M49.5519 21.6598C50.9268 21.6626 52.2591 21.1725 53.317 20.2746L51.8181 18.436C51.187 18.987 50.3818 19.2853 49.5519 19.2756C48.8177 19.2801 48.1003 19.0513 47.4989 18.6209C46.8974 18.1906 46.4416 17.5798 46.1944 16.8731H55.4393V15.6474C55.4453 14.4484 55.1025 13.2746 54.4546 12.2751C53.8066 11.2757 52.8828 10.4956 51.8003 10.034C50.7178 9.57232 49.5255 9.44995 48.3748 9.68238C47.2242 9.91481 46.1671 10.4916 45.3377 11.3394C44.5083 12.1872 43.9441 13.2679 43.7167 14.4442C43.4894 15.6204 43.6091 16.8392 44.0607 17.9458C44.5123 19.0524 45.2754 19.9968 46.2531 20.6592C47.2308 21.3216 48.379 21.6719 49.5519 21.6659V21.6598ZM49.5519 12.0313C50.2798 12.0415 50.9875 12.2772 51.5816 12.7072C52.1757 13.1373 52.6282 13.7415 52.8793 14.44H46.1944C46.4473 13.7366 46.9044 13.129 47.5044 12.6986C48.1045 12.2681 48.8188 12.0353 49.5519 12.0313Z" fill="#1C2B32"/>
<path d="M74.1868 21.6596C75.3512 21.6596 76.4895 21.3066 77.4577 20.6453C78.4259 19.984 79.1805 19.044 79.6261 17.9443C80.0717 16.8445 80.1883 15.6344 79.9612 14.4669C79.734 13.2994 79.1733 12.2271 78.3499 11.3853C77.5265 10.5436 76.4774 9.97043 75.3354 9.73821C74.1933 9.50598 73.0096 9.62517 71.9338 10.0807C70.858 10.5362 69.9385 11.3076 69.2915 12.2974C68.6446 13.2871 68.2993 14.4507 68.2993 15.6411C68.2993 17.2373 68.9196 18.7681 70.0237 19.8968C71.1278 21.0255 72.6253 21.6596 74.1868 21.6596ZM71.6807 13.116C72.0052 12.7717 72.3936 12.497 72.8231 12.3079C73.2526 12.1188 73.7147 12.0192 74.1824 12.0147C74.65 12.0103 75.1138 12.1012 75.5467 12.2821C75.9796 12.463 76.3729 12.7302 76.7036 13.0683C77.0343 13.4063 77.2957 13.8084 77.4727 14.2509C77.6496 14.6934 77.7385 15.1676 77.7342 15.6456C77.7299 16.1237 77.6323 16.5961 77.4474 17.0351C77.2624 17.4742 76.9937 17.8712 76.6569 18.2029C75.9954 18.8744 75.101 19.2512 74.1688 19.2512C73.2366 19.2512 72.3422 18.8744 71.6807 18.2029C71.021 17.5283 70.6504 16.6134 70.6504 15.6595C70.6504 14.7055 71.021 13.7907 71.6807 13.116Z" fill="#1C2B32"/>
<path d="M90.9739 10.8238C90.0985 10.1505 89.0568 9.73991 87.9658 9.6382C86.8748 9.53649 85.7777 9.74765 84.7976 10.248C83.8175 10.7483 82.9932 11.518 82.4173 12.4706C81.8413 13.4233 81.5366 14.5211 81.5371 15.641C81.5859 17.2048 82.2279 18.6878 83.3273 19.7764C84.4266 20.8649 85.8971 21.4735 87.4276 21.4735C88.9581 21.4735 90.4286 20.8649 91.5279 19.7764C92.6273 18.6878 93.2693 17.2048 93.3181 15.641V3.9043H90.9619L90.9739 10.8238ZM89.9307 18.2029C89.2692 18.8743 88.3748 19.2511 87.4426 19.2511C86.5104 19.2511 85.616 18.8743 84.9545 18.2029C84.2948 17.5282 83.9241 16.6134 83.9241 15.6594C83.9241 14.7055 84.2948 13.7906 84.9545 13.1159C85.279 12.7717 85.6673 12.497 86.0969 12.3079C86.5264 12.1188 86.9885 12.0191 87.4561 12.0147C87.9238 12.0102 88.3876 12.1011 88.8205 12.282C89.2534 12.4629 89.6467 12.7302 89.9773 13.0682C90.308 13.4063 90.5695 13.8083 90.7465 14.2508C90.9234 14.6934 91.0123 15.1675 91.008 15.6456C91.0036 16.1236 90.9061 16.596 90.7211 17.0351C90.5362 17.4742 90.2674 17.8712 89.9307 18.2029Z" fill="#1C2B32"/>
<path d="M100.723 21.6593C102.097 21.6601 103.429 21.1702 104.488 20.2742L102.989 18.4355C102.355 18.9777 101.55 19.2672 100.723 19.2507C99.9887 19.2551 99.2713 19.0263 98.6698 18.596C98.0684 18.1656 97.6126 17.5548 97.3654 16.8482H106.61V15.6224C106.613 14.4242 106.267 13.2522 105.617 12.2551C104.967 11.2581 104.042 10.4809 102.959 10.0221C101.876 9.56325 100.684 9.44351 99.5347 9.67803C98.3852 9.91254 97.3298 10.4908 96.5022 11.3393C95.6746 12.1879 95.1122 13.2686 94.8863 14.4444C94.6604 15.6201 94.7812 16.838 95.2333 17.9435C95.6855 19.049 96.4486 19.9924 97.4259 20.6539C98.4032 21.3154 99.5507 21.6654 100.723 21.6593ZM100.723 12.0309C101.451 12.041 102.158 12.2767 102.753 12.7068C103.347 13.1368 103.799 13.741 104.05 14.4395H97.3414C97.5957 13.7322 98.0565 13.1219 98.6612 12.6911C99.266 12.2603 99.9857 12.0298 100.723 12.0309Z" fill="#1C2B32"/>
<path d="M65.2959 18.4233L66.8127 20.2619C65.9545 21.0071 64.9056 21.4856 63.7899 21.6409C62.6742 21.7963 61.5384 21.622 60.5164 21.1386C59.4945 20.6553 58.6293 19.8831 58.0229 18.9132C57.4165 17.9434 57.0942 16.8164 57.0942 15.6653C57.0942 14.5143 57.4165 13.3872 58.0229 12.4174C58.6293 11.4475 59.4945 10.6753 60.5164 10.192C61.5384 9.70864 62.6742 9.53435 63.7899 9.6897C64.9056 9.84505 65.9545 10.3235 66.8127 11.0687L65.2899 12.9073C64.8539 12.5304 64.3354 12.2665 63.7784 12.1381C63.2214 12.0098 62.6423 12.0207 62.0903 12.1699C61.5383 12.3191 61.0296 12.6023 60.6075 12.9954C60.1854 13.3885 59.8623 13.8799 59.6657 14.4279C59.469 14.9759 59.4046 15.5643 59.4779 16.1432C59.5512 16.7221 59.76 17.2744 60.0866 17.7531C60.4133 18.2319 60.8481 18.623 61.3542 18.8933C61.8602 19.1637 62.4226 19.3052 62.9936 19.3058C63.8402 19.3058 64.6581 18.9923 65.2959 18.4233Z" fill="#1C2B32"/>
</svg>
