<svg width="40" height="34" viewBox="0 0 40 34" fill="none" xmlns="http://www.w3.org/2000/svg">
<mask id="path-1-inside-1_23_1434" fill="white">
<path d="M36.0289 0.517702C37.5996 2.81815 38.7015 5.40712 39.2716 8.13679C39.8416 10.8665 39.8687 13.6834 39.3513 16.4267C38.8338 19.17 37.782 21.786 36.2558 24.1254C34.7296 26.4647 32.759 28.4815 30.4564 30.0607C28.1538 31.6399 25.5644 32.7505 22.836 33.3292C20.1076 33.9078 17.2936 33.9431 14.5548 33.4331C11.8159 32.9231 9.20577 31.8778 6.8734 30.3568C4.54103 28.8358 2.5321 26.8689 0.961321 24.5684L8.88125 19.1366C9.74252 20.398 10.844 21.4764 12.1229 22.3104C13.4017 23.1444 14.8329 23.7175 16.3346 23.9972C17.8363 24.2768 19.3792 24.2574 20.8752 23.9402C22.3712 23.6229 23.791 23.0139 25.0535 22.1481C26.316 21.2822 27.3966 20.1763 28.2334 18.8937C29.0702 17.611 29.6469 16.1767 29.9306 14.6725C30.2143 13.1683 30.1995 11.6238 29.8869 10.1271C29.5744 8.6304 28.9702 7.21085 28.1089 5.94951L36.0289 0.517702Z"/>
</mask>
<path d="M36.0289 0.517702C37.5996 2.81815 38.7015 5.40712 39.2716 8.13679C39.8416 10.8665 39.8687 13.6834 39.3513 16.4267C38.8338 19.17 37.782 21.786 36.2558 24.1254C34.7296 26.4647 32.759 28.4815 30.4564 30.0607C28.1538 31.6399 25.5644 32.7505 22.836 33.3292C20.1076 33.9078 17.2936 33.9431 14.5548 33.4331C11.8159 32.9231 9.20577 31.8778 6.8734 30.3568C4.54103 28.8358 2.5321 26.8689 0.961321 24.5684L8.88125 19.1366C9.74252 20.398 10.844 21.4764 12.1229 22.3104C13.4017 23.1444 14.8329 23.7175 16.3346 23.9972C17.8363 24.2768 19.3792 24.2574 20.8752 23.9402C22.3712 23.6229 23.791 23.0139 25.0535 22.1481C26.316 21.2822 27.3966 20.1763 28.2334 18.8937C29.0702 17.611 29.6469 16.1767 29.9306 14.6725C30.2143 13.1683 30.1995 11.6238 29.8869 10.1271C29.5744 8.6304 28.9702 7.21085 28.1089 5.94951L36.0289 0.517702Z" stroke="#4386D1" stroke-width="290" mask="url(#path-1-inside-1_23_1434)"/>
</svg>
