<svg width="103" height="102" viewBox="0 0 103 102" fill="none" xmlns="http://www.w3.org/2000/svg">
<g clip-path="url(#clip0_23_1436)">
<path fill-rule="evenodd" clip-rule="evenodd" d="M61.8434 56.848C60.6502 64.1839 58.2077 71.8248 53.4887 77.8032C51.7718 79.9786 49.7318 81.6788 47.6562 83.4374C47.5108 83.5609 47.309 83.5487 47.2062 83.4098C47.104 83.2702 47.1394 83.0567 47.2859 82.9329C49.3213 81.2081 51.3256 79.5448 53.0093 77.4114C57.6613 71.518 60.0498 63.9776 61.2172 56.7473L61.1135 56.7324C59.9866 56.5745 58.9515 55.4673 58.1536 53.8905C57.0095 51.6306 56.3207 48.425 56.3844 46.0154C56.4132 44.9327 56.5984 44.0046 56.942 43.3721C57.2096 42.8787 57.5737 42.549 58.0268 42.4137C58.9925 42.1261 59.8571 42.7609 60.5217 43.9833C61.9122 46.5392 62.5365 51.6406 62.2519 53.974C62.1628 54.7027 62.0627 55.4372 61.9494 56.1749C62.1463 56.2084 62.3392 56.2404 62.5292 56.2624C63.0709 56.3235 63.5968 56.3017 64.1828 55.9623C65.0957 55.4325 65.8135 54.5356 66.3881 53.5066C67.2839 51.9002 67.826 49.9694 68.1591 48.5018C70.0138 40.3286 67.7344 34.0574 64.4192 29.239C61.0702 24.3735 56.6665 20.9793 54.3291 18.6028C54.2086 18.4808 54.2188 18.2678 54.3505 18.1269C54.4822 17.986 54.6869 17.9711 54.8069 18.0938C57.1596 20.4855 61.5879 23.907 64.9586 28.8055C68.363 33.751 70.6911 40.1932 68.788 48.583C68.4411 50.1118 67.8705 52.1206 66.9376 53.7932C66.2913 54.9509 65.4715 55.9475 64.444 56.5438C63.5219 57.0784 62.7239 56.9908 61.8434 56.848ZM61.3228 56.0705L61.271 56.0637C60.286 55.9257 59.4307 54.9021 58.7333 53.5232C57.6339 51.3516 56.9695 48.2719 57.0312 45.9553C57.0518 45.1611 57.1571 44.4605 57.3678 43.9264C57.5421 43.4861 57.7832 43.1663 58.1354 43.062C58.4679 42.9618 58.7735 43.0429 59.055 43.2443C59.386 43.48 59.6816 43.872 59.9504 44.3655C61.2863 46.8217 61.8844 51.724 61.6107 53.9662C61.5252 54.6626 61.4299 55.3645 61.3228 56.0705Z" fill="#1C2B32"/>
<path fill-rule="evenodd" clip-rule="evenodd" d="M46.5343 83.1399C46.6607 83.1907 46.8562 83.202 47.0668 83.2114C47.5684 83.2345 48.1575 83.1803 48.4349 83.1665C48.6133 83.158 48.7469 83.3026 48.7347 83.4884C48.722 83.675 48.5677 83.8327 48.3893 83.8412C48.0495 83.8576 47.2645 83.9283 46.6981 83.8658C46.3943 83.832 46.1472 83.7523 46.0103 83.6369C45.7767 83.4408 45.7762 83.1092 46.0935 82.6728C46.4691 82.1568 47.3775 81.3453 47.6651 80.3369C47.7169 80.1539 47.8988 80.0322 48.0686 80.066C48.2396 80.0996 48.3357 80.2753 48.2833 80.459C48.0087 81.4203 47.2514 82.2369 46.7742 82.8092C46.6836 82.918 46.5892 83.0568 46.5343 83.1399Z" fill="#1C2B32"/>
</g>
<defs>
<clipPath id="clip0_23_1436">
<rect width="59.4085" height="52.4629" fill="white" transform="matrix(-0.570865 0.821044 0.821044 0.570865 46.9141 12)"/>
</clipPath>
</defs>
</svg>
