<svg width="27" height="39" viewBox="0 0 27 39" fill="none" xmlns="http://www.w3.org/2000/svg">
<path d="M25.994 3.60163C26.1847 2.77947 25.7873 1.93103 25.0146 1.64658C24.3387 1.39782 23.648 1.191 22.9461 1.0274C18.2315 0.0330447 13.3031 0.998489 9.24398 3.71154C5.18487 6.4246 2.32721 10.6633 1.29905 15.496C0.698272 17.875 0.561369 20.3468 0.896189 22.7695C1.23101 25.1922 2.03096 27.5181 3.25017 29.6139C4.46937 31.7096 6.08383 33.5339 8.00091 34.9821C9.918 36.4303 12.1 37.4739 14.4217 38.053C15.1115 38.2116 15.8106 38.3243 16.5147 38.3906C17.325 38.4669 18.0414 37.8818 18.2299 37.0692L25.994 3.60163Z" fill="#EC7D79"/>
</svg>
