<svg width="1440" height="850" viewBox="0 0 1440 850" fill="none" xmlns="http://www.w3.org/2000/svg">
<path d="M414.3 33L408.46 22.4H406.82V33H399.98V4.92H411.46C413.673 4.92 415.553 5.30667 417.1 6.08C418.673 6.85333 419.847 7.92 420.62 9.28C421.393 10.6133 421.78 12.1067 421.78 13.76C421.78 15.6267 421.247 17.2933 420.18 18.76C419.14 20.2267 417.593 21.2667 415.54 21.88L422.02 33H414.3ZM406.82 17.56H411.06C412.313 17.56 413.247 17.2533 413.86 16.64C414.5 16.0267 414.82 15.16 414.82 14.04C414.82 12.9733 414.5 12.1333 413.86 11.52C413.247 10.9067 412.313 10.6 411.06 10.6H406.82V17.56ZM447.114 21.48C447.114 22.12 447.074 22.7867 446.994 23.48H431.514C431.62 24.8667 432.06 25.9333 432.834 26.68C433.634 27.4 434.607 27.76 435.754 27.76C437.46 27.76 438.647 27.04 439.314 25.6H446.594C446.22 27.0667 445.54 28.3867 444.554 29.56C443.594 30.7333 442.38 31.6533 440.914 32.32C439.447 32.9867 437.807 33.32 435.994 33.32C433.807 33.32 431.86 32.8533 430.154 31.92C428.447 30.9867 427.114 29.6533 426.154 27.92C425.194 26.1867 424.714 24.16 424.714 21.84C424.714 19.52 425.18 17.4933 426.114 15.76C427.074 14.0267 428.407 12.6933 430.114 11.76C431.82 10.8267 433.78 10.36 435.994 10.36C438.154 10.36 440.074 10.8133 441.754 11.72C443.434 12.6267 444.74 13.92 445.674 15.6C446.634 17.28 447.114 19.24 447.114 21.48ZM440.114 19.68C440.114 18.5067 439.714 17.5733 438.914 16.88C438.114 16.1867 437.114 15.84 435.914 15.84C434.767 15.84 433.794 16.1733 432.994 16.84C432.22 17.5067 431.74 18.4533 431.554 19.68H440.114ZM449.362 21.8C449.362 19.5067 449.789 17.4933 450.642 15.76C451.522 14.0267 452.709 12.6933 454.202 11.76C455.696 10.8267 457.362 10.36 459.202 10.36C460.776 10.36 462.149 10.68 463.322 11.32C464.522 11.96 465.442 12.8 466.082 13.84V10.68H472.922V33H466.082V29.84C465.416 30.88 464.482 31.72 463.282 32.36C462.109 33 460.736 33.32 459.162 33.32C457.349 33.32 455.696 32.8533 454.202 31.92C452.709 30.96 451.522 29.6133 450.642 27.88C449.789 26.12 449.362 24.0933 449.362 21.8ZM466.082 21.84C466.082 20.1333 465.602 18.7867 464.642 17.8C463.709 16.8133 462.562 16.32 461.202 16.32C459.842 16.32 458.682 16.8133 457.722 17.8C456.789 18.76 456.322 20.0933 456.322 21.8C456.322 23.5067 456.789 24.8667 457.722 25.88C458.682 26.8667 459.842 27.36 461.202 27.36C462.562 27.36 463.709 26.8667 464.642 25.88C465.602 24.8933 466.082 23.5467 466.082 21.84ZM476.511 21.8C476.511 19.5067 476.937 17.4933 477.791 15.76C478.671 14.0267 479.857 12.6933 481.351 11.76C482.844 10.8267 484.511 10.36 486.351 10.36C487.817 10.36 489.151 10.6667 490.351 11.28C491.577 11.8933 492.537 12.72 493.231 13.76V3.4H500.071V33H493.231V29.8C492.591 30.8667 491.671 31.72 490.471 32.36C489.297 33 487.924 33.32 486.351 33.32C484.511 33.32 482.844 32.8533 481.351 31.92C479.857 30.96 478.671 29.6133 477.791 27.88C476.937 26.12 476.511 24.0933 476.511 21.8ZM493.231 21.84C493.231 20.1333 492.751 18.7867 491.791 17.8C490.857 16.8133 489.711 16.32 488.351 16.32C486.991 16.32 485.831 16.8133 484.871 17.8C483.937 18.76 483.471 20.0933 483.471 21.8C483.471 23.5067 483.937 24.8667 484.871 25.88C485.831 26.8667 486.991 27.36 488.351 27.36C489.711 27.36 490.857 26.8667 491.791 25.88C492.751 24.8933 493.231 23.5467 493.231 21.84ZM527.819 10.68L513.819 43.6H506.459L511.579 32.24L502.499 10.68H510.139L515.299 24.64L520.419 10.68H527.819ZM551.209 27.2V33H547.729C545.249 33 543.316 32.4 541.929 31.2C540.542 29.9733 539.849 27.9867 539.849 25.24V16.36H537.129V10.68H539.849V5.24H546.689V10.68H551.169V16.36H546.689V25.32C546.689 25.9867 546.849 26.4667 547.169 26.76C547.489 27.0533 548.022 27.2 548.769 27.2H551.209ZM565.179 33.32C562.992 33.32 561.019 32.8533 559.259 31.92C557.526 30.9867 556.152 29.6533 555.139 27.92C554.152 26.1867 553.659 24.16 553.659 21.84C553.659 19.5467 554.166 17.5333 555.179 15.8C556.192 14.04 557.579 12.6933 559.339 11.76C561.099 10.8267 563.072 10.36 565.259 10.36C567.446 10.36 569.419 10.8267 571.179 11.76C572.939 12.6933 574.326 14.04 575.339 15.8C576.352 17.5333 576.859 19.5467 576.859 21.84C576.859 24.1333 576.339 26.16 575.299 27.92C574.286 29.6533 572.886 30.9867 571.099 31.92C569.339 32.8533 567.366 33.32 565.179 33.32ZM565.179 27.4C566.486 27.4 567.592 26.92 568.499 25.96C569.432 25 569.899 23.6267 569.899 21.84C569.899 20.0533 569.446 18.68 568.539 17.72C567.659 16.76 566.566 16.28 565.259 16.28C563.926 16.28 562.819 16.76 561.939 17.72C561.059 18.6533 560.619 20.0267 560.619 21.84C560.619 23.6267 561.046 25 561.899 25.96C562.779 26.92 563.872 27.4 565.179 27.4ZM595.804 13.84C596.444 12.8 597.364 11.96 598.564 11.32C599.764 10.68 601.138 10.36 602.684 10.36C604.524 10.36 606.191 10.8267 607.684 11.76C609.178 12.6933 610.351 14.0267 611.204 15.76C612.084 17.4933 612.524 19.5067 612.524 21.8C612.524 24.0933 612.084 26.12 611.204 27.88C610.351 29.6133 609.178 30.96 607.684 31.92C606.191 32.8533 604.524 33.32 602.684 33.32C601.111 33.32 599.738 33.0133 598.564 32.4C597.391 31.76 596.471 30.92 595.804 29.88V33H588.964V3.4H595.804V13.84ZM605.564 21.8C605.564 20.0933 605.084 18.76 604.124 17.8C603.191 16.8133 602.031 16.32 600.644 16.32C599.284 16.32 598.124 16.8133 597.164 17.8C596.231 18.7867 595.764 20.1333 595.764 21.84C595.764 23.5467 596.231 24.8933 597.164 25.88C598.124 26.8667 599.284 27.36 600.644 27.36C602.004 27.36 603.164 26.8667 604.124 25.88C605.084 24.8667 605.564 23.5067 605.564 21.8ZM622.953 14.4C623.753 13.1733 624.753 12.2133 625.953 11.52C627.153 10.8 628.486 10.44 629.953 10.44V17.68H628.073C626.366 17.68 625.086 18.0533 624.233 18.8C623.379 19.52 622.953 20.8 622.953 22.64V33H616.113V10.68H622.953V14.4ZM636.662 8.36C635.462 8.36 634.476 8.01333 633.702 7.32C632.956 6.6 632.582 5.72 632.582 4.68C632.582 3.61333 632.956 2.73333 633.702 2.04C634.476 1.32 635.462 0.959998 636.662 0.959998C637.836 0.959998 638.796 1.32 639.542 2.04C640.316 2.73333 640.702 3.61333 640.702 4.68C640.702 5.72 640.316 6.6 639.542 7.32C638.796 8.01333 637.836 8.36 636.662 8.36ZM640.062 10.68V33H633.222V10.68H640.062ZM658.619 10.44C661.232 10.44 663.312 11.2933 664.859 13C666.432 14.68 667.219 17 667.219 19.96V33H660.419V20.88C660.419 19.3867 660.032 18.2267 659.259 17.4C658.486 16.5733 657.446 16.16 656.139 16.16C654.832 16.16 653.792 16.5733 653.019 17.4C652.246 18.2267 651.859 19.3867 651.859 20.88V33H645.019V10.68H651.859V13.64C652.552 12.6533 653.486 11.88 654.659 11.32C655.832 10.7333 657.152 10.44 658.619 10.44ZM680.452 10.36C682.026 10.36 683.399 10.68 684.572 11.32C685.772 11.96 686.692 12.8 687.332 13.84V10.68H694.172V32.96C694.172 35.0133 693.759 36.8667 692.932 38.52C692.132 40.2 690.892 41.5333 689.212 42.52C687.559 43.5067 685.492 44 683.012 44C679.706 44 677.026 43.2133 674.972 41.64C672.919 40.0933 671.746 37.9867 671.452 35.32H678.212C678.426 36.1733 678.932 36.84 679.732 37.32C680.532 37.8267 681.519 38.08 682.692 38.08C684.106 38.08 685.226 37.6667 686.052 36.84C686.906 36.04 687.332 34.7467 687.332 32.96V29.8C686.666 30.84 685.746 31.6933 684.572 32.36C683.399 33 682.026 33.32 680.452 33.32C678.612 33.32 676.946 32.8533 675.452 31.92C673.959 30.96 672.772 29.6133 671.892 27.88C671.039 26.12 670.612 24.0933 670.612 21.8C670.612 19.5067 671.039 17.4933 671.892 15.76C672.772 14.0267 673.959 12.6933 675.452 11.76C676.946 10.8267 678.612 10.36 680.452 10.36ZM687.332 21.84C687.332 20.1333 686.852 18.7867 685.892 17.8C684.959 16.8133 683.812 16.32 682.452 16.32C681.092 16.32 679.932 16.8133 678.972 17.8C678.039 18.76 677.572 20.0933 677.572 21.8C677.572 23.5067 678.039 24.8667 678.972 25.88C679.932 26.8667 681.092 27.36 682.452 27.36C683.812 27.36 684.959 26.8667 685.892 25.88C686.852 24.8933 687.332 23.5467 687.332 21.84ZM730.397 10.68L716.397 43.6H709.037L714.157 32.24L705.077 10.68H712.717L717.877 24.64L722.997 10.68H730.397ZM743.031 33.32C740.844 33.32 738.871 32.8533 737.111 31.92C735.377 30.9867 734.004 29.6533 732.991 27.92C732.004 26.1867 731.511 24.16 731.511 21.84C731.511 19.5467 732.017 17.5333 733.031 15.8C734.044 14.04 735.431 12.6933 737.191 11.76C738.951 10.8267 740.924 10.36 743.111 10.36C745.297 10.36 747.271 10.8267 749.031 11.76C750.791 12.6933 752.177 14.04 753.191 15.8C754.204 17.5333 754.711 19.5467 754.711 21.84C754.711 24.1333 754.191 26.16 753.151 27.92C752.137 29.6533 750.737 30.9867 748.951 31.92C747.191 32.8533 745.217 33.32 743.031 33.32ZM743.031 27.4C744.337 27.4 745.444 26.92 746.351 25.96C747.284 25 747.751 23.6267 747.751 21.84C747.751 20.0533 747.297 18.68 746.391 17.72C745.511 16.76 744.417 16.28 743.111 16.28C741.777 16.28 740.671 16.76 739.791 17.72C738.911 18.6533 738.471 20.0267 738.471 21.84C738.471 23.6267 738.897 25 739.751 25.96C740.631 26.92 741.724 27.4 743.031 27.4ZM780.379 10.68V33H773.539V29.96C772.846 30.9467 771.899 31.7467 770.699 32.36C769.526 32.9467 768.219 33.24 766.779 33.24C765.073 33.24 763.566 32.8667 762.259 32.12C760.953 31.3467 759.939 30.24 759.219 28.8C758.499 27.36 758.139 25.6667 758.139 23.72V10.68H764.939V22.8C764.939 24.2933 765.326 25.4533 766.099 26.28C766.873 27.1067 767.913 27.52 769.219 27.52C770.553 27.52 771.606 27.1067 772.379 26.28C773.153 25.4533 773.539 24.2933 773.539 22.8V10.68H780.379ZM792.133 14.4C792.933 13.1733 793.933 12.2133 795.133 11.52C796.333 10.8 797.666 10.44 799.133 10.44V17.68H797.253C795.546 17.68 794.266 18.0533 793.413 18.8C792.559 19.52 792.133 20.8 792.133 22.64V33H785.293V10.68H792.133V14.4ZM814.318 8.36C813.118 8.36 812.132 8.01333 811.358 7.32C810.612 6.6 810.238 5.72 810.238 4.68C810.238 3.61333 810.612 2.73333 811.358 2.04C812.132 1.32 813.118 0.959998 814.318 0.959998C815.492 0.959998 816.452 1.32 817.198 2.04C817.972 2.73333 818.358 3.61333 818.358 4.68C818.358 5.72 817.972 6.6 817.198 7.32C816.452 8.01333 815.492 8.36 814.318 8.36ZM817.718 10.68V33H810.878V10.68H817.718ZM821.315 21.8C821.315 19.5067 821.742 17.4933 822.595 15.76C823.475 14.0267 824.662 12.6933 826.155 11.76C827.649 10.8267 829.315 10.36 831.155 10.36C832.622 10.36 833.955 10.6667 835.155 11.28C836.382 11.8933 837.342 12.72 838.035 13.76V3.4H844.875V33H838.035V29.8C837.395 30.8667 836.475 31.72 835.275 32.36C834.102 33 832.729 33.32 831.155 33.32C829.315 33.32 827.649 32.8533 826.155 31.92C824.662 30.96 823.475 29.6133 822.595 27.88C821.742 26.12 821.315 24.0933 821.315 21.8ZM838.035 21.84C838.035 20.1333 837.555 18.7867 836.595 17.8C835.662 16.8133 834.515 16.32 833.155 16.32C831.795 16.32 830.635 16.8133 829.675 17.8C828.742 18.76 828.275 20.0933 828.275 21.8C828.275 23.5067 828.742 24.8667 829.675 25.88C830.635 26.8667 831.795 27.36 833.155 27.36C834.515 27.36 835.662 26.8667 836.595 25.88C837.555 24.8933 838.035 23.5467 838.035 21.84ZM870.864 21.48C870.864 22.12 870.824 22.7867 870.744 23.48H855.264C855.37 24.8667 855.81 25.9333 856.584 26.68C857.384 27.4 858.357 27.76 859.504 27.76C861.21 27.76 862.397 27.04 863.064 25.6H870.344C869.97 27.0667 869.29 28.3867 868.304 29.56C867.344 30.7333 866.13 31.6533 864.664 32.32C863.197 32.9867 861.557 33.32 859.744 33.32C857.557 33.32 855.61 32.8533 853.904 31.92C852.197 30.9867 850.864 29.6533 849.904 27.92C848.944 26.1867 848.464 24.16 848.464 21.84C848.464 19.52 848.93 17.4933 849.864 15.76C850.824 14.0267 852.157 12.6933 853.864 11.76C855.57 10.8267 857.53 10.36 859.744 10.36C861.904 10.36 863.824 10.8133 865.504 11.72C867.184 12.6267 868.49 13.92 869.424 15.6C870.384 17.28 870.864 19.24 870.864 21.48ZM863.864 19.68C863.864 18.5067 863.464 17.5733 862.664 16.88C861.864 16.1867 860.864 15.84 859.664 15.84C858.517 15.84 857.544 16.1733 856.744 16.84C855.97 17.5067 855.49 18.4533 855.304 19.68H863.864ZM873.112 21.8C873.112 19.5067 873.539 17.4933 874.392 15.76C875.272 14.0267 876.459 12.6933 877.952 11.76C879.446 10.8267 881.112 10.36 882.952 10.36C884.526 10.36 885.899 10.68 887.072 11.32C888.272 11.96 889.192 12.8 889.832 13.84V10.68H896.672V33H889.832V29.84C889.166 30.88 888.232 31.72 887.032 32.36C885.859 33 884.486 33.32 882.912 33.32C881.099 33.32 879.446 32.8533 877.952 31.92C876.459 30.96 875.272 29.6133 874.392 27.88C873.539 26.12 873.112 24.0933 873.112 21.8ZM889.832 21.84C889.832 20.1333 889.352 18.7867 888.392 17.8C887.459 16.8133 886.312 16.32 884.952 16.32C883.592 16.32 882.432 16.8133 881.472 17.8C880.539 18.76 880.072 20.0933 880.072 21.8C880.072 23.5067 880.539 24.8667 881.472 25.88C882.432 26.8667 883.592 27.36 884.952 27.36C886.312 27.36 887.459 26.8667 888.392 25.88C889.352 24.8933 889.832 23.5467 889.832 21.84ZM922.537 27.2V33H919.057C916.577 33 914.644 32.4 913.257 31.2C911.871 29.9733 911.177 27.9867 911.177 25.24V16.36H908.457V10.68H911.177V5.24H918.017V10.68H922.497V16.36H918.017V25.32C918.017 25.9867 918.177 26.4667 918.497 26.76C918.817 27.0533 919.351 27.2 920.097 27.2H922.537ZM936.507 33.32C934.321 33.32 932.347 32.8533 930.587 31.92C928.854 30.9867 927.481 29.6533 926.467 27.92C925.481 26.1867 924.987 24.16 924.987 21.84C924.987 19.5467 925.494 17.5333 926.507 15.8C927.521 14.04 928.907 12.6933 930.667 11.76C932.427 10.8267 934.401 10.36 936.587 10.36C938.774 10.36 940.747 10.8267 942.507 11.76C944.267 12.6933 945.654 14.04 946.667 15.8C947.681 17.5333 948.187 19.5467 948.187 21.84C948.187 24.1333 947.667 26.16 946.627 27.92C945.614 29.6533 944.214 30.9867 942.427 31.92C940.667 32.8533 938.694 33.32 936.507 33.32ZM936.507 27.4C937.814 27.4 938.921 26.92 939.827 25.96C940.761 25 941.227 23.6267 941.227 21.84C941.227 20.0533 940.774 18.68 939.867 17.72C938.987 16.76 937.894 16.28 936.587 16.28C935.254 16.28 934.147 16.76 933.267 17.72C932.387 18.6533 931.947 20.0267 931.947 21.84C931.947 23.6267 932.374 25 933.227 25.96C934.107 26.92 935.201 27.4 936.507 27.4ZM967.133 3.4V33H960.293V3.4H967.133ZM975.529 8.36C974.329 8.36 973.343 8.01333 972.569 7.32C971.823 6.6 971.449 5.72 971.449 4.68C971.449 3.61333 971.823 2.73333 972.569 2.04C973.343 1.32 974.329 0.959998 975.529 0.959998C976.703 0.959998 977.663 1.32 978.409 2.04C979.183 2.73333 979.569 3.61333 979.569 4.68C979.569 5.72 979.183 6.6 978.409 7.32C977.663 8.01333 976.703 8.36 975.529 8.36ZM978.929 10.68V33H972.089V10.68H978.929ZM995.086 16.36H991.406V33H984.566V16.36H982.086V10.68H984.566V10.04C984.566 7.29333 985.353 5.21333 986.926 3.8C988.5 2.36 990.806 1.64 993.846 1.64C994.353 1.64 994.726 1.65333 994.966 1.68V7.48C993.66 7.4 992.74 7.58667 992.206 8.04C991.673 8.49333 991.406 9.30666 991.406 10.48V10.68H995.086V16.36ZM1019.34 21.48C1019.34 22.12 1019.3 22.7867 1019.22 23.48H1003.74C1003.85 24.8667 1004.29 25.9333 1005.06 26.68C1005.86 27.4 1006.83 27.76 1007.98 27.76C1009.69 27.76 1010.87 27.04 1011.54 25.6H1018.82C1018.45 27.0667 1017.77 28.3867 1016.78 29.56C1015.82 30.7333 1014.61 31.6533 1013.14 32.32C1011.67 32.9867 1010.03 33.32 1008.22 33.32C1006.03 33.32 1004.09 32.8533 1002.38 31.92C1000.67 30.9867 999.34 29.6533 998.38 27.92C997.42 26.1867 996.94 24.16 996.94 21.84C996.94 19.52 997.407 17.4933 998.34 15.76C999.3 14.0267 1000.63 12.6933 1002.34 11.76C1004.05 10.8267 1006.01 10.36 1008.22 10.36C1010.38 10.36 1012.3 10.8133 1013.98 11.72C1015.66 12.6267 1016.97 13.92 1017.9 15.6C1018.86 17.28 1019.34 19.24 1019.34 21.48ZM1012.34 19.68C1012.34 18.5067 1011.94 17.5733 1011.14 16.88C1010.34 16.1867 1009.34 15.84 1008.14 15.84C1006.99 15.84 1006.02 16.1733 1005.22 16.84C1004.45 17.5067 1003.97 18.4533 1003.78 19.68H1012.34ZM1031.15 3.36C1034 3.36 1036.28 4.10666 1037.99 5.6C1039.72 7.09333 1040.59 9.2 1040.59 11.92C1040.59 14.4267 1039.76 16.3867 1038.11 17.8C1036.48 19.1867 1034.32 19.8933 1031.63 19.92L1031.43 22.92H1025.43L1025.23 15.48H1027.63C1029.68 15.48 1031.24 15.2267 1032.31 14.72C1033.4 14.2133 1033.95 13.2933 1033.95 11.96C1033.95 11.0267 1033.7 10.2933 1033.19 9.76C1032.68 9.22667 1031.98 8.96 1031.07 8.96C1030.11 8.96 1029.36 9.24 1028.83 9.8C1028.3 10.3333 1028.03 11.0667 1028.03 12H1021.59C1021.54 10.3733 1021.87 8.90667 1022.59 7.6C1023.34 6.29333 1024.43 5.26667 1025.87 4.52C1027.34 3.74667 1029.1 3.36 1031.15 3.36ZM1028.51 33.32C1027.31 33.32 1026.32 32.9733 1025.55 32.28C1024.8 31.56 1024.43 30.68 1024.43 29.64C1024.43 28.5733 1024.8 27.68 1025.55 26.96C1026.32 26.24 1027.31 25.88 1028.51 25.88C1029.68 25.88 1030.64 26.24 1031.39 26.96C1032.16 27.68 1032.55 28.5733 1032.55 29.64C1032.55 30.68 1032.16 31.56 1031.39 32.28C1030.64 32.9733 1029.68 33.32 1028.51 33.32Z" fill="#1C2B32"/>
<path d="M1077.72 491.363C1081.08 488.002 1086.36 487.448 1090.2 490.246C1110.2 504.808 1127.04 523.315 1139.67 544.654C1153.68 568.338 1162.14 594.891 1164.39 622.308C1166.65 649.725 1162.65 677.29 1152.69 702.922C1142.74 728.554 1127.09 751.583 1106.92 770.271C1090.09 787.79 1069.97 801.816 1047.71 811.551C1025.44 821.285 1001.48 826.536 977.175 827.003C952.873 827.471 928.712 823.146 906.072 814.276C883.432 805.405 862.757 792.163 845.227 775.306C838.466 768.571 832.288 761.281 826.756 753.516C824.027 749.684 824.61 744.469 827.937 741.142L1077.72 491.363Z" fill="#EE7373"/>
<mask id="mask0_105_4392" style="mask-type:alpha" maskUnits="userSpaceOnUse" x="-1" y="42" width="1441" height="689">
<rect x="-0.375" y="42" width="1440" height="689" fill="#D9D9D9"/>
</mask>
<g mask="url(#mask0_105_4392)">
<mask id="mask1_105_4392" style="mask-type:alpha" maskUnits="userSpaceOnUse" x="1" y="42" width="1441" height="723">
<rect x="1.125" y="42" width="1440" height="723" fill="#D9D9D9"/>
</mask>
<g mask="url(#mask1_105_4392)">
<ellipse rx="13.5" ry="13" transform="matrix(4.38475e-08 1 1 -4.35757e-08 752.375 265.5)" fill="#EC7D79"/>
</g>
</g>
<path fill-rule="evenodd" clip-rule="evenodd" d="M322.473 455.8C360.292 433.674 372.931 385.128 350.703 347.369C328.475 309.61 279.797 296.936 241.978 319.062C204.158 341.187 191.52 389.733 213.748 427.493C235.976 465.252 284.654 477.925 322.473 455.8ZM305.73 427.358C283.644 440.279 255.216 432.878 242.234 410.827C229.253 388.776 236.634 360.425 258.721 347.503C280.807 334.582 309.235 341.983 322.216 364.035C335.198 386.086 327.816 414.437 305.73 427.358Z" fill="#4386D1"/>
<path fill-rule="evenodd" clip-rule="evenodd" d="M700.333 522.051C729.231 505.144 738.889 468.049 721.904 439.197C704.919 410.345 667.723 400.66 638.825 417.567C609.927 434.474 600.269 471.568 617.254 500.421C634.239 529.273 671.435 538.957 700.333 522.051ZM687.539 500.318C670.663 510.192 648.94 504.536 639.021 487.686C629.102 470.836 634.742 449.173 651.619 439.3C668.495 429.426 690.218 435.082 700.137 451.932C710.056 468.781 704.416 490.445 687.539 500.318Z" fill="#4386D1"/>
<path d="M108.5 850L215.5 850C221.023 850 225.5 845.523 225.5 840L225.5 614C225.5 608.477 221.023 604 215.5 604L108.5 604C102.977 604 98.5 608.477 98.5 614L98.5 840C98.5 845.523 102.977 850 108.5 850Z" fill="#F6C050"/>
<path d="M1246.56 295.088C1283.93 298.523 1311.43 331.599 1308 368.966V368.966L1240.34 362.746L1246.56 295.088V295.088Z" fill="#48C287"/>
<ellipse rx="13.5" ry="13" transform="matrix(4.38475e-08 1 1 -4.35757e-08 370.5 228.5)" fill="#EC7D79"/>
<ellipse rx="13.5" ry="13" transform="matrix(4.38475e-08 1 1 -4.35757e-08 1342.5 547.5)" fill="#4386D1"/>
<g clip-path="url(#clip0_105_4392)">
<path fill-rule="evenodd" clip-rule="evenodd" d="M1163.43 347.64C1163.01 347.676 1162.6 347.695 1162.19 347.696C1161.57 347.698 1160.96 347.617 1160.35 347.586C1160.09 347.573 1159.41 347.55 1159.31 347.53C1158.47 347.348 1158.4 346.654 1158.39 346.453C1158.39 346.355 1158.36 345.353 1159.47 345.227C1160.84 345.072 1162.2 345.097 1163.53 345.297C1164.67 345.171 1165.83 344.89 1166.88 344.481C1171.09 342.857 1171.78 339.172 1172.07 335.143C1172.11 334.523 1172.64 334.048 1173.26 334.065C1173.88 334.082 1174.38 334.586 1174.38 335.207C1174.42 337.475 1175.9 341.614 1177.67 343.145C1178.04 343.465 1178.98 343.71 1179.89 344.007C1181.16 344.421 1182.4 344.892 1182.91 345.348C1182.99 345.417 1183.78 346.24 1183.88 346.474C1184.14 347.039 1183.93 347.458 1183.75 347.691C1183.58 347.924 1183.24 348.177 1182.72 348.247C1182.17 348.32 1181.08 348.133 1180.84 348.132C1179.98 348.129 1178.29 348.165 1176.82 348.399C1176.02 348.525 1175.29 348.668 1174.91 348.971C1173.49 350.096 1173.53 352.078 1173.61 353.752C1173.62 353.944 1173.63 354.136 1173.64 354.328C1173.78 355.018 1173.87 355.746 1173.9 356.51C1173.94 357.663 1172.88 357.767 1172.81 357.771C1172.65 357.78 1171.86 357.796 1171.61 356.91C1171.59 356.813 1171.49 356.108 1171.45 355.836C1171.4 355.457 1171.37 355.075 1171.34 354.693C1170.44 350.695 1167.2 348.302 1163.43 347.64ZM1167.74 346.639C1170.9 345.411 1172.56 343.295 1173.43 340.699L1173.43 340.7C1174.17 342.423 1175.13 344.015 1176.15 344.9C1176.54 345.235 1177.35 345.58 1178.26 345.905C1177.38 345.971 1176.44 346.08 1175.64 346.259C1174.72 346.462 1173.94 346.773 1173.47 347.151C1172.55 347.881 1171.99 348.845 1171.67 349.904C1170.63 348.522 1169.28 347.429 1167.74 346.639Z" fill="#1C2B32"/>
</g>
<path fill-rule="evenodd" clip-rule="evenodd" d="M193.266 463.25C191.995 469.237 192.27 474.955 192.286 480.987C192.289 482.165 193.243 483.115 194.415 483.113C195.589 483.112 196.538 482.152 196.535 480.974C196.521 475.254 196.216 469.821 197.422 464.134C197.667 462.983 196.933 461.85 195.786 461.609C194.64 461.361 193.51 462.1 193.266 463.25Z" fill="#1C2B32"/>
<path fill-rule="evenodd" clip-rule="evenodd" d="M180.508 452.127C170.896 461.5 161.937 473.449 155.79 485.424C155.254 486.47 155.665 487.755 156.708 488.29C157.751 488.825 159.033 488.416 159.569 487.37C165.514 475.792 174.178 464.235 183.472 455.177C184.313 454.356 184.33 453.007 183.512 452.167C182.694 451.327 181.348 451.305 180.508 452.127Z" fill="#1C2B32"/>
<path fill-rule="evenodd" clip-rule="evenodd" d="M177.689 442.308C168.589 441.098 159.338 443.944 151.22 447.812C150.162 448.321 149.711 449.592 150.214 450.647C150.718 451.71 151.987 452.16 153.047 451.658C160.44 448.132 168.841 445.426 177.129 446.527C178.292 446.682 179.361 445.861 179.515 444.699C179.67 443.538 178.851 442.463 177.689 442.308Z" fill="#1C2B32"/>
<mask id="path-16-inside-1_105_4392" fill="white">
<path d="M100.284 142.168C103.617 147.049 105.955 152.543 107.165 158.334C108.374 164.126 108.432 170.103 107.334 175.924C106.236 181.744 104.004 187.295 100.766 192.258C97.5278 197.222 93.3466 201.501 88.461 204.852C83.5755 208.203 78.0814 210.559 72.2923 211.787C66.5033 213.015 60.5327 213.09 54.7214 212.007C48.9101 210.925 43.372 208.707 38.4233 205.48C33.4745 202.253 29.212 198.08 25.8792 193.199L42.6835 181.674C44.5109 184.35 46.848 186.638 49.5614 188.408C52.2749 190.177 55.3114 191.393 58.4978 191.987C61.6841 192.58 64.9578 192.539 68.132 191.866C71.3062 191.192 74.3186 189.9 76.9974 188.063C79.6761 186.226 81.9687 183.88 83.7442 181.158C85.5198 178.437 86.7434 175.393 87.3454 172.202C87.9474 169.01 87.9159 165.733 87.2527 162.557C86.5895 159.382 85.3076 156.37 83.4802 153.693L100.284 142.168Z"/>
</mask>
<path d="M100.284 142.168C103.617 147.049 105.955 152.543 107.165 158.334C108.374 164.126 108.432 170.103 107.334 175.924C106.236 181.744 104.004 187.295 100.766 192.258C97.5278 197.222 93.3466 201.501 88.461 204.852C83.5755 208.203 78.0814 210.559 72.2923 211.787C66.5033 213.015 60.5327 213.09 54.7214 212.007C48.9101 210.925 43.372 208.707 38.4233 205.48C33.4745 202.253 29.212 198.08 25.8792 193.199L42.6835 181.674C44.5109 184.35 46.848 186.638 49.5614 188.408C52.2749 190.177 55.3114 191.393 58.4978 191.987C61.6841 192.58 64.9578 192.539 68.132 191.866C71.3062 191.192 74.3186 189.9 76.9974 188.063C79.6761 186.226 81.9687 183.88 83.7442 181.158C85.5198 178.437 86.7434 175.393 87.3454 172.202C87.9474 169.01 87.9159 165.733 87.2527 162.557C86.5895 159.382 85.3076 156.37 83.4802 153.693L100.284 142.168Z" stroke="#48C287" stroke-width="290" mask="url(#path-16-inside-1_105_4392)"/>
<defs>
<clipPath id="clip0_105_4392">
<rect width="24" height="26" fill="white" transform="translate(1157.54 356.872) rotate(-85.4042)"/>
</clipPath>
</defs>
</svg>
