<svg width="24" height="20" viewBox="0 0 24 20" fill="none" xmlns="http://www.w3.org/2000/svg">
<path d="M24 2.47076C23.1174 2.86233 22.1693 3.12691 21.1726 3.2465C22.201 2.63034 22.9704 1.66058 23.3373 0.518173C22.371 1.09282 21.3135 1.49732 20.2107 1.71407C19.4691 0.921247 18.4868 0.395753 17.4164 0.219172C16.3459 0.0425901 15.2472 0.224799 14.2907 0.737511C13.3343 1.25022 12.5737 2.06475 12.127 3.05463C11.6803 4.04452 11.5725 5.15437 11.8203 6.21189C9.86244 6.11346 7.94711 5.60394 6.19863 4.7164C4.45016 3.82885 2.90761 2.58311 1.6711 1.06003C1.2483 1.79026 1.0052 2.63691 1.0052 3.5386C1.00473 4.35032 1.20437 5.1496 1.58641 5.86554C1.96846 6.58148 2.52109 7.19193 3.19528 7.64273C2.4134 7.61782 1.64877 7.40629 0.965031 7.02573V7.08923C0.964952 8.2277 1.35827 9.33114 2.07823 10.2123C2.7982 11.0935 3.80048 11.6981 4.915 11.9236C4.18968 12.1201 3.42923 12.1491 2.69109 12.0083C3.00555 12.9879 3.61807 13.8445 4.44291 14.4582C5.26776 15.0719 6.26363 15.412 7.29111 15.4309C5.5469 16.8018 3.39282 17.5455 1.17537 17.5422C0.782575 17.5423 0.39011 17.5193 0 17.4734C2.25083 18.9224 4.87097 19.6914 7.5469 19.6884C16.6053 19.6884 21.5573 12.1765 21.5573 5.66157C21.5573 5.44991 21.552 5.23613 21.5425 5.02447C22.5057 4.32701 23.3372 3.46334 23.9979 2.47393L24 2.47076Z" fill="#00ACEE"/>
</svg>
